<svg width="46" height="51" viewBox="0 0 46 51" fill="none" xmlns="http://www.w3.org/2000/svg">
<path fill-rule="evenodd" clip-rule="evenodd" d="M35.4885 18.4314C31.6116 14.6057 25.3102 14.6057 21.4334 18.4314C17.5565 22.2572 17.5565 28.4755 21.4334 32.3013C25.3102 36.127 31.6116 36.127 35.4885 32.3013C39.3653 28.4755 39.3653 22.2572 35.4885 18.4314ZM19.9789 16.9961C24.659 12.3776 32.2628 12.3776 36.9429 16.9961C41.6231 21.6146 41.6231 29.1181 36.9429 33.7366C32.2628 38.3551 24.659 38.3551 19.9789 33.7366C15.2987 29.1181 15.2987 21.6146 19.9789 16.9961Z" fill="#0E65F1"/>
<path fill-rule="evenodd" clip-rule="evenodd" d="M32.5821 21.301C30.3096 19.0585 26.6138 19.0585 24.3414 21.301C22.0689 23.5435 22.0689 27.1907 24.3414 29.4331C26.6138 31.6756 30.3096 31.6756 32.5821 29.4331C34.8545 27.1907 34.8545 23.5435 32.5821 21.301ZM22.8869 19.8657C25.9626 16.8305 30.9608 16.8305 34.0366 19.8657C37.1123 22.9009 37.1123 27.8333 34.0366 30.8685C30.9608 33.9036 25.9626 33.9036 22.8869 30.8685C19.8111 27.8333 19.8111 22.9009 22.8869 19.8657Z" fill="#0E65F1"/>
<path fill-rule="evenodd" clip-rule="evenodd" d="M40.069 32.7751C40.4706 32.3788 41.1218 32.3788 41.5235 32.7751L45.6374 36.8348C46.0391 37.2312 46.0391 37.8738 45.6374 38.2702C45.2358 38.6665 44.5846 38.6665 44.1829 38.2702L40.7962 34.9281L38.1368 37.5525L41.5235 40.8946C41.9251 41.2909 41.9251 41.9336 41.5235 42.3299C41.1218 42.7263 40.4706 42.7263 40.069 42.3299L35.955 38.2702C35.5534 37.8738 35.5534 37.2312 35.955 36.8348L40.069 32.7751Z" fill="#0E65F1"/>
<path fill-rule="evenodd" clip-rule="evenodd" d="M34.5835 34.1285C34.9851 33.7321 35.6363 33.7321 36.038 34.1285L37.4093 35.4817C37.8109 35.8781 37.8109 36.5207 37.4093 36.9171C37.0076 37.3134 36.3564 37.3134 35.9548 36.9171L34.5835 35.5638C34.1818 35.1675 34.1818 34.5249 34.5835 34.1285Z" fill="#0E65F1"/>
<path fill-rule="evenodd" clip-rule="evenodd" d="M37.3261 31.4221C37.7278 31.0258 38.379 31.0258 38.7806 31.4221L40.152 32.7754C40.5536 33.1717 40.5536 33.8144 40.152 34.2107C39.7503 34.6071 39.0991 34.6071 38.6975 34.2107L37.3261 32.8575C36.9245 32.4611 36.9245 31.8185 37.3261 31.4221Z" fill="#0E65F1"/>
<path fill-rule="evenodd" clip-rule="evenodd" d="M3.77112 2.02987C2.83069 2.02987 2.05697 2.79338 2.05697 3.72142V47.0252C2.05697 47.9533 2.83069 48.7168 3.77112 48.7168H28.4548C29.3952 48.7168 30.1689 47.9533 30.1689 47.0252V38.9058C30.1689 38.3452 30.6294 37.8908 31.1974 37.8908C31.7654 37.8908 32.2259 38.3452 32.2259 38.9058V47.0252C32.2259 49.0743 30.5313 50.7466 28.4548 50.7466H3.77112C1.69465 50.7466 0 49.0743 0 47.0252V3.72142C0 1.67232 1.69465 0 3.77112 0H28.4548C30.5313 0 32.2259 1.67232 32.2259 3.72142V11.8409C32.2259 12.4014 31.7654 12.8558 31.1974 12.8558C30.6294 12.8558 30.1689 12.4014 30.1689 11.8409V3.72142C30.1689 2.79338 29.3952 2.02987 28.4548 2.02987H3.77112Z" fill="#0E65F1"/>
<path fill-rule="evenodd" clip-rule="evenodd" d="M0 7.78129C0 7.22076 0.460469 6.76636 1.02849 6.76636H31.1974C31.7654 6.76636 32.2259 7.22076 32.2259 7.78129C32.2259 8.34182 31.7654 8.79622 31.1974 8.79622H1.02849C0.460469 8.79622 0 8.34182 0 7.78129Z" fill="#0E65F1"/>
<path fill-rule="evenodd" clip-rule="evenodd" d="M0 41.6123C0 41.0518 0.460469 40.5974 1.02849 40.5974H31.1974C31.7654 40.5974 32.2259 41.0518 32.2259 41.6123C32.2259 42.1728 31.7654 42.6272 31.1974 42.6272H1.02849C0.460469 42.6272 0 42.1728 0 41.6123Z" fill="#0E65F1"/>
<path fill-rule="evenodd" clip-rule="evenodd" d="M12.3418 45.672C12.3418 45.1115 12.8023 44.6571 13.3703 44.6571H18.8555C19.4236 44.6571 19.884 45.1115 19.884 45.672C19.884 46.2326 19.4236 46.687 18.8555 46.687H13.3703C12.8023 46.687 12.3418 46.2326 12.3418 45.672Z" fill="#0E65F1"/>
<path fill-rule="evenodd" clip-rule="evenodd" d="M4.11377 11.8406C4.11377 11.2801 4.57424 10.8257 5.14226 10.8257H13.3701C13.9382 10.8257 14.3986 11.2801 14.3986 11.8406V18.6068C14.3986 19.1674 13.9382 19.6218 13.3701 19.6218H5.14226C4.57424 19.6218 4.11377 19.1674 4.11377 18.6068V11.8406ZM6.17074 12.8555V17.5919H12.3417V12.8555H6.17074Z" fill="#0E65F1"/>
<path fill-rule="evenodd" clip-rule="evenodd" d="M4.11377 24.0201C4.11377 23.4595 4.57424 23.0051 5.14226 23.0051H11.9988C12.5669 23.0051 13.0273 23.4595 13.0273 24.0201C13.0273 24.5806 12.5669 25.035 11.9988 25.035H5.14226C4.57424 25.035 4.11377 24.5806 4.11377 24.0201Z" fill="#0E65F1"/>
<path fill-rule="evenodd" clip-rule="evenodd" d="M4.11377 29.4332C4.11377 28.8727 4.57424 28.4183 5.14226 28.4183H11.9988C12.5669 28.4183 13.0273 28.8727 13.0273 29.4332C13.0273 29.9937 12.5669 30.4481 11.9988 30.4481H5.14226C4.57424 30.4481 4.11377 29.9937 4.11377 29.4332Z" fill="#0E65F1"/>
<path fill-rule="evenodd" clip-rule="evenodd" d="M4.11377 34.8462C4.11377 34.2856 4.57424 33.8312 5.14226 33.8312H16.1128C16.6808 33.8312 17.1413 34.2856 17.1413 34.8462C17.1413 35.4067 16.6808 35.8611 16.1128 35.8611H5.14226C4.57424 35.8611 4.11377 35.4067 4.11377 34.8462Z" fill="#0E65F1"/>
</svg>
