<svg width="51" height="51" viewBox="0 0 51 51" fill="none" xmlns="http://www.w3.org/2000/svg">
<path fill-rule="evenodd" clip-rule="evenodd" d="M50.4648 0.282307C50.7039 0.521449 50.8002 0.868439 50.7185 1.19662L48.4727 10.2207C47.0282 16.5873 43.6921 22.3727 38.8862 26.7958L20.8103 43.4371C20.4303 43.7869 19.842 43.7748 19.4767 43.4097L19.4638 43.3968L19.4636 43.3966L7.34862 31.2786C6.98331 30.9131 6.97112 30.3246 7.32099 29.9444L23.9581 11.8638C23.9581 11.8638 23.9581 11.8637 23.9582 11.8637C28.379 7.05789 34.1626 3.70709 40.5298 2.27473L49.5507 0.0285623C49.8788 -0.0531331 50.2257 0.0431653 50.4648 0.282307ZM48.4614 2.28619L40.9846 4.14789L40.963 4.15302C34.9755 5.49774 29.5348 8.64816 25.3762 13.169L25.3761 13.1691L9.36495 30.5694L20.1854 41.3926L37.5813 25.3774L37.5814 25.3773C42.1001 21.2185 45.2381 15.7763 46.5955 9.7847L46.6002 9.76489L48.4614 2.28619Z" fill="#0E65F1"/>
<path fill-rule="evenodd" clip-rule="evenodd" d="M6.34344 36.3264C5.96715 35.95 5.96715 35.3398 6.34344 34.9634L9.36853 31.9375C9.74482 31.5612 10.3549 31.5612 10.7312 31.9375L18.8072 40.0156C19.1835 40.392 19.1835 41.0022 18.8072 41.3786L15.7821 44.4045C15.4058 44.7808 14.7957 44.7808 14.4194 44.4045L6.34344 36.3264ZM8.38742 35.6449L15.1008 42.36L16.7632 40.6971L10.0499 33.982L8.38742 35.6449Z" fill="#0E65F1"/>
<path fill-rule="evenodd" clip-rule="evenodd" d="M11.3822 15.6904C11.5629 15.5097 11.808 15.4081 12.0636 15.4081H20.2344C20.7666 15.4081 21.198 15.8396 21.198 16.3719C21.198 16.9042 20.7666 17.3357 20.2344 17.3357H12.4627L2.65075 27.1501L8.40949 29.6218C8.89852 29.8317 9.12485 30.3984 8.91501 30.8875C8.70517 31.3767 8.13863 31.6031 7.64959 31.3932L0.583611 28.3605C0.28986 28.2344 0.0777403 27.9708 0.0173607 27.6568C-0.043019 27.3428 0.0562022 27.0193 0.28223 26.7933L11.3822 15.6904Z" fill="#0E65F1"/>
<path fill-rule="evenodd" clip-rule="evenodd" d="M34.3668 29.543C34.8989 29.543 35.3303 29.9745 35.3303 30.5068V38.6797C35.3303 38.9353 35.2288 39.1804 35.0481 39.3612L23.948 50.464C23.722 50.6901 23.3986 50.7893 23.0847 50.7289C22.7708 50.6685 22.5073 50.4564 22.3812 50.1625L19.3493 43.0948C19.1395 42.6056 19.3658 42.0389 19.8548 41.829C20.3439 41.6191 20.9104 41.8455 21.1203 42.3347L23.5913 48.0949L33.4032 38.2805V30.5068C33.4032 29.9745 33.8346 29.543 34.3668 29.543Z" fill="#0E65F1"/>
<path fill-rule="evenodd" clip-rule="evenodd" d="M32.3625 18.3637C30.9788 16.9796 28.7496 16.9796 27.3658 18.3637C25.982 19.7478 25.982 21.9776 27.3658 23.3617C28.7496 24.7458 30.9788 24.7458 32.3625 23.3617C33.7463 21.9776 33.7463 19.7478 32.3625 18.3637ZM26.0031 17.0007C28.1395 14.8638 31.5888 14.8638 33.7252 17.0007C35.8616 19.1376 35.8616 22.5878 33.7252 24.7247C31.5888 26.8616 28.1395 26.8616 26.0031 24.7247C23.8668 22.5878 23.8668 19.1376 26.0031 17.0007Z" fill="#0E65F1"/>
<path fill-rule="evenodd" clip-rule="evenodd" d="M11.3823 25.8674C11.7586 25.491 12.3687 25.491 12.745 25.8674L24.8727 37.9983C25.249 38.3747 25.249 38.9849 24.8727 39.3613C24.4965 39.7377 23.8864 39.7377 23.5101 39.3613L11.3823 27.2304C11.006 26.854 11.006 26.2438 11.3823 25.8674Z" fill="#0E65F1"/>
<path fill-rule="evenodd" clip-rule="evenodd" d="M38.0532 3.23804C38.4295 2.86165 39.0396 2.86165 39.4159 3.23804L47.4968 11.321C47.8731 11.6974 47.8731 12.3076 47.4968 12.684C47.1205 13.0604 46.5104 13.0604 46.1341 12.684L38.0532 4.60104C37.6769 4.22466 37.6769 3.61442 38.0532 3.23804Z" fill="#0E65F1"/>
</svg>
