<svg width="55" height="51" viewBox="0 0 55 51" fill="none" xmlns="http://www.w3.org/2000/svg">
<path fill-rule="evenodd" clip-rule="evenodd" d="M0 8.71028C0 8.08282 0.487883 7.57416 1.08972 7.57416H47.5843C48.1862 7.57416 48.674 8.08282 48.674 8.71028C48.674 9.33774 48.1862 9.8464 47.5843 9.8464H1.08972C0.487883 9.8464 0 9.33774 0 8.71028Z" fill="#0E65F1"/>
<path fill-rule="evenodd" clip-rule="evenodd" d="M5.44859 2.27224C3.63851 2.27224 2.17943 3.79345 2.17943 5.68059V39.0067C2.17943 40.8939 3.63851 42.4151 5.44859 42.4151H24.337C24.9389 42.4151 25.4267 42.9238 25.4267 43.5512C25.4267 44.1787 24.9389 44.6873 24.337 44.6873H5.44859C2.43484 44.6873 0 42.1488 0 39.0067V5.68059C0 2.53852 2.43484 0 5.44859 0H43.2255C46.2392 0 48.674 2.53852 48.674 5.68059V19.314C48.674 19.9415 48.1862 20.4501 47.5843 20.4501C46.9825 20.4501 46.4946 19.9415 46.4946 19.314V5.68059C46.4946 3.79345 45.0355 2.27224 43.2255 2.27224H5.44859Z" fill="#0E65F1"/>
<path fill-rule="evenodd" clip-rule="evenodd" d="M7.26416 31.4323C7.26416 30.8049 7.75204 30.2962 8.35388 30.2962H14.1657C14.7675 30.2962 15.2554 30.8049 15.2554 31.4323V37.4916C15.2554 38.1191 14.7675 38.6277 14.1657 38.6277H8.35388C7.75204 38.6277 7.26416 38.1191 7.26416 37.4916V31.4323ZM9.44359 32.5684V36.3555H13.076V32.5684H9.44359Z" fill="#0E65F1"/>
<path fill-rule="evenodd" clip-rule="evenodd" d="M7.26416 14.7696C7.26416 14.1421 7.75204 13.6335 8.35388 13.6335H40.3189C40.9208 13.6335 41.4086 14.1421 41.4086 14.7696V17.7993C41.4086 18.4267 40.9208 18.9354 40.3189 18.9354C39.7171 18.9354 39.2292 18.4267 39.2292 17.7993V15.9057H9.44359V24.2373H25.7894C26.3912 24.2373 26.8791 24.7459 26.8791 25.3734C26.8791 26.0008 26.3912 26.5095 25.7894 26.5095H8.35388C7.75204 26.5095 7.26416 26.0008 7.26416 25.3734V14.7696Z" fill="#0E65F1"/>
<path fill-rule="evenodd" clip-rule="evenodd" d="M17.4351 31.4323C17.4351 30.8049 17.9229 30.2962 18.5248 30.2962H22.8836C23.4855 30.2962 23.9734 30.8049 23.9734 31.4323C23.9734 32.0598 23.4855 32.5684 22.8836 32.5684H18.5248C17.9229 32.5684 17.4351 32.0598 17.4351 31.4323Z" fill="#0E65F1"/>
<path fill-rule="evenodd" clip-rule="evenodd" d="M17.4351 37.4919C17.4351 36.8644 17.9229 36.3558 18.5248 36.3558H22.8836C23.4855 36.3558 23.9734 36.8644 23.9734 37.4919C23.9734 38.1194 23.4855 38.628 22.8836 38.628H18.5248C17.9229 38.628 17.4351 38.1194 17.4351 37.4919Z" fill="#0E65F1"/>
<path fill-rule="evenodd" clip-rule="evenodd" d="M40.3196 23.48C33.6995 23.48 28.3328 29.0752 28.3328 35.9773C28.3328 42.8794 33.6995 48.4746 40.3196 48.4746C46.9398 48.4746 52.3065 42.8794 52.3065 35.9773C52.3065 29.0752 46.9398 23.48 40.3196 23.48ZM26.1533 35.9773C26.1533 27.8203 32.4958 21.2078 40.3196 21.2078C48.1435 21.2078 54.486 27.8203 54.486 35.9773C54.486 44.1343 48.1435 50.7469 40.3196 50.7469C32.4958 50.7469 26.1533 44.1343 26.1533 35.9773Z" fill="#0E65F1"/>
<path fill-rule="evenodd" clip-rule="evenodd" d="M46.829 30.5599C47.2913 30.9616 47.3538 31.678 46.9685 32.16L39.7037 41.2489C39.5077 41.4942 39.2218 41.6421 38.9159 41.6566C38.6101 41.671 38.3125 41.5507 38.096 41.325L33.7371 36.7805C33.3116 36.3368 33.3116 35.6175 33.7371 35.1738C34.1627 34.7301 34.8527 34.7301 35.2782 35.1738L38.7933 38.8385L45.2942 30.7053C45.6795 30.2233 46.3666 30.1582 46.829 30.5599Z" fill="#0E65F1"/>
</svg>
