<svg width="40" height="40" viewBox="0 0 40 40" fill="none" xmlns="http://www.w3.org/2000/svg">
<path d="M25.3723 25.8464L21.6845 33.5965C21.4472 34.0954 20.8505 34.3072 20.3518 34.0699C20.2407 34.017 20.1402 33.944 20.0555 33.8545L14.1532 27.6234C13.9952 27.4565 13.7846 27.3492 13.5568 27.3195L5.04628 26.207C4.49865 26.1354 4.11275 25.6335 4.18433 25.0859C4.20028 24.9637 4.23866 24.8457 4.29751 24.7375L8.39986 17.1985C8.50968 16.9967 8.54666 16.7632 8.50458 16.5374L6.93268 8.09967C6.83153 7.55672 7.18968 7.03459 7.73263 6.93344C7.85368 6.91089 7.97786 6.91089 8.09891 6.93344L16.5366 8.50534C16.7625 8.54741 16.996 8.51044 17.1977 8.40062L24.7367 4.29827C25.2218 4.03429 25.8292 4.21356 26.093 4.69867C26.152 4.80684 26.1903 4.92494 26.2062 5.04704L27.3187 13.5575C27.3485 13.7853 27.4558 13.9959 27.6225 14.1539L33.8538 20.0562C34.2548 20.436 34.272 21.069 33.8922 21.4699C33.8075 21.5594 33.707 21.6324 33.5958 21.6852L25.8457 25.373C25.6382 25.4719 25.471 25.6389 25.3723 25.8464ZM26.7003 29.0582L29.0573 26.7012L36.1285 33.7722L33.7715 36.1292L26.7003 29.0582Z" fill="#2F80ED"/>
</svg>
