<svg width="40" height="40" viewBox="0 0 40 40" fill="none" xmlns="http://www.w3.org/2000/svg">
<path d="M19.9987 3.33337C29.2024 3.33337 36.6654 9.96301 36.6654 18.1482C36.6654 23.2594 32.5172 27.4074 27.406 27.4074H24.1284C22.5914 27.4074 21.3505 28.6482 21.3505 30.1852C21.3505 30.8889 21.6284 31.537 22.0542 32.0185C22.4987 32.5185 22.7765 33.1667 22.7765 33.8889C22.7765 35.426 21.4987 36.6667 19.9987 36.6667C10.795 36.6667 3.33203 29.2037 3.33203 20C3.33203 10.7963 10.795 3.33337 19.9987 3.33337ZM12.4987 20C13.8794 20 14.9987 18.8807 14.9987 17.5C14.9987 16.1193 13.8794 15 12.4987 15C11.118 15 9.9987 16.1193 9.9987 17.5C9.9987 18.8807 11.118 20 12.4987 20ZM27.4987 20C28.8794 20 29.9987 18.8807 29.9987 17.5C29.9987 16.1193 28.8794 15 27.4987 15C26.118 15 24.9987 16.1193 24.9987 17.5C24.9987 18.8807 26.118 20 27.4987 20ZM19.9987 15C21.3794 15 22.4987 13.8808 22.4987 12.5C22.4987 11.1193 21.3794 10 19.9987 10C18.618 10 17.4987 11.1193 17.4987 12.5C17.4987 13.8808 18.618 15 19.9987 15Z" fill="#2F80ED"/>
</svg>
