<svg width="53" height="53" viewBox="0 0 53 53" fill="none" xmlns="http://www.w3.org/2000/svg">
<path fill-rule="evenodd" clip-rule="evenodd" d="M14.9954 5.40107C17.6674 4.37094 20.5665 4.07521 23.3915 4.54468C26.2196 5.01467 28.8699 6.23434 31.0665 8.07667C31.0826 8.09021 31.0984 8.10421 31.1137 8.11866C33.7307 10.5873 35.4388 13.8664 35.9617 17.4259C36.4847 20.9854 35.792 24.6172 33.9956 27.7343C33.9869 27.7493 33.9779 27.7641 33.9686 27.7787C32.0399 30.7825 29.1604 33.0535 25.7899 34.2289C22.4193 35.4044 18.752 35.4166 15.3737 34.2636L15.3448 34.2538L15.3449 34.2534C13.162 33.4389 11.2048 32.1154 9.63602 30.3928L9.62829 30.3843L9.62833 30.3843C7.22547 27.6891 5.78873 24.2703 5.54491 20.6678C5.3011 17.0652 6.26411 13.484 8.2819 10.4896C8.28903 10.4791 8.29634 10.4686 8.30384 10.4583C9.98353 8.1462 12.3128 6.38587 14.9954 5.40107ZM23.0363 6.68203C20.5904 6.27556 18.0802 6.53234 15.7673 7.42562L15.7497 7.4324L15.7496 7.43225C13.4732 8.26625 11.4958 9.75735 10.068 11.7163C8.32653 14.3082 7.49576 17.4056 7.70664 20.5215C7.91781 23.6418 9.1616 26.603 11.2418 28.9382C12.5745 30.4001 14.2356 31.5243 16.0881 32.2181C19.004 33.2096 22.168 33.1974 25.0764 32.1831C27.9814 31.17 30.4644 29.2153 32.1313 26.6299C33.6746 23.9402 34.2689 20.8094 33.8181 17.7409C33.3675 14.6741 31.8994 11.8481 29.6499 9.71646C27.7549 8.13442 25.4718 7.08678 23.0363 6.68203Z" fill="#003A99"/>
<path fill-rule="evenodd" clip-rule="evenodd" d="M12.113 14.6225C12.6059 14.9617 12.7305 15.6363 12.3913 16.1291C12.2218 16.3753 12.1134 16.6583 12.0748 16.9547C12.0679 17.0082 12.0569 17.0612 12.042 17.1131C11.9071 17.5843 11.8018 18.0634 11.7267 18.5477C11.6007 19.5438 11.6011 20.552 11.7279 21.5481C11.987 23.4412 12.7346 25.2343 13.897 26.7509C14.261 27.2258 14.1711 27.9058 13.6962 28.2698C13.2214 28.6337 12.5413 28.5438 12.1774 28.069C10.785 26.2523 9.88996 24.1043 9.58048 21.8364L9.57922 21.8272L9.57926 21.8272C9.42801 20.6427 9.42801 19.4438 9.57926 18.2594L9.58278 18.2318L9.58314 18.2318C9.66838 17.678 9.78695 17.1298 9.9382 16.5903C10.0301 15.9842 10.2585 15.4064 10.6065 14.9008C10.9457 14.4079 11.6202 14.2833 12.113 14.6225Z" fill="#003A99"/>
<path fill-rule="evenodd" clip-rule="evenodd" d="M20.2523 15.6206C20.1598 15.6206 20.0684 15.6404 19.9841 15.6785C19.9451 15.6962 19.905 15.7116 19.8641 15.7245C19.3303 15.8934 18.8106 16.1039 18.3097 16.3541L18.2942 16.3619C18.0208 16.493 17.7527 16.6345 17.4905 16.7864C17.6143 16.8597 17.7373 16.9284 17.856 16.9947C17.9156 17.028 17.9742 17.0607 18.0312 17.0931C18.8055 17.4754 19.6183 17.7737 20.4556 17.9831C21.3359 17.811 22.188 17.5163 22.987 17.1073C23.0001 17.1006 23.0133 17.0942 23.0266 17.088C23.1033 17.0526 23.2278 17.0025 23.349 16.954L22.2727 16.3506C21.7445 16.1074 21.201 15.8988 20.6456 15.7261C20.6029 15.7129 20.5611 15.697 20.5204 15.6785C20.4362 15.6404 20.3447 15.6206 20.2523 15.6206ZM16.806 16.9529C16.6922 17.1817 16.5136 17.2867 16.4466 17.3195C16.4108 17.337 16.3817 17.3459 16.3818 17.346C16.3818 17.3461 16.3949 17.3422 16.4277 17.3343C16.4296 17.3338 16.432 17.3333 16.4347 17.3326C16.4607 17.3264 16.5201 17.3122 16.5768 17.2951C16.6271 17.28 16.7768 17.2345 16.9315 17.1314L16.8088 16.9472M16.806 16.9529L16.3306 16.23L16.8088 16.9472M19.1552 13.6764C19.5021 13.5297 19.8751 13.454 20.2523 13.454C20.6283 13.454 21.0003 13.5293 21.3463 13.6751C21.9864 13.8769 22.6128 14.1198 23.2217 14.4023C23.2467 14.4139 23.2713 14.4265 23.2954 14.44L24.7254 15.2417C24.7404 15.2501 24.7552 15.2589 24.7698 15.268C24.8143 15.2958 24.8903 15.336 25.041 15.4158L25.0434 15.4171C25.1739 15.4862 25.3476 15.5787 25.5119 15.6807C25.6626 15.7743 25.8827 15.9221 26.0631 16.1219C26.2198 16.2954 26.5887 16.7882 26.3717 17.4392C26.2672 17.7526 26.0595 17.9512 25.9646 18.0357C25.8465 18.1409 25.7192 18.2264 25.6119 18.292C25.3952 18.4246 25.1427 18.5462 24.9202 18.6459C24.6916 18.7484 24.4615 18.8421 24.2793 18.9154L24.0434 19.01L23.9658 19.0418L23.9472 19.0498C22.8964 19.5842 21.7713 19.9577 20.6093 20.1576C20.4675 20.182 20.3222 20.1779 20.182 20.1456C19.0943 19.8945 18.0399 19.5168 17.0403 19.0202C17.0215 19.0109 17.003 19.001 16.9848 18.9906C16.9479 18.9695 16.9013 18.9435 16.8473 18.9134C16.6293 18.7919 16.2912 18.6034 15.988 18.4005C15.7937 18.2704 15.5795 18.1127 15.3887 17.9323C15.2106 17.764 14.9785 17.5074 14.8451 17.1664C14.7422 16.9034 14.6593 16.5177 14.8141 16.1069C14.9728 15.686 15.2923 15.4722 15.4942 15.3734C15.6371 15.3034 15.781 15.2625 15.8633 15.2417C16.3411 14.935 16.8374 14.6579 17.3493 14.412C17.9318 14.1214 18.5355 13.8756 19.1552 13.6764Z" fill="#003A99"/>
<path fill-rule="evenodd" clip-rule="evenodd" d="M15.7894 15.6017C16.3877 15.6017 16.8727 16.0867 16.8727 16.685V21.6684C16.8727 21.8204 16.8407 21.97 16.7796 22.1077C16.7775 22.1225 16.7755 22.1394 16.7738 22.1579C16.7966 22.1684 16.8195 22.1786 16.8426 22.1885L16.8497 22.1915C17.1547 22.3241 17.5541 22.5463 17.9154 22.7474L17.9524 22.768C18.3374 22.9822 18.7178 23.1938 19.0577 23.3589C19.1027 23.3808 19.1462 23.4057 19.1877 23.4336C19.4838 23.6321 19.7921 23.8119 20.1106 23.9719L20.1185 23.9759C20.1658 24.0001 20.2154 24.0193 20.2665 24.0331C20.3609 24.0063 20.4521 23.9692 20.5386 23.9224L20.5699 23.9061L21.7658 23.3081C22.619 22.9097 23.4424 22.4507 24.2293 21.9342C24.2389 21.8158 24.2394 21.699 24.2394 21.625V17.01C24.2394 16.4117 24.7244 15.9267 25.3227 15.9267C25.921 15.9267 26.4061 16.4117 26.4061 17.01V21.6304C26.4061 21.7224 26.4061 21.9647 26.3781 22.2235C26.3639 22.3554 26.3398 22.5177 26.2953 22.682C26.2559 22.8276 26.1753 23.0735 25.9953 23.2984C25.9284 23.3821 25.8494 23.4554 25.7609 23.5159C24.7883 24.181 23.7633 24.7661 22.6961 25.2654L21.5532 25.8368C21.2157 26.0172 20.8509 26.1411 20.4733 26.2038C20.382 26.2189 20.2892 26.2223 20.1971 26.2138C19.8264 26.1798 19.4657 26.0754 19.1342 25.9061C18.7586 25.7173 18.3944 25.5065 18.0437 25.2748C17.6676 25.089 17.2684 24.8668 16.9224 24.6743C16.9071 24.6658 16.8919 24.6574 16.8769 24.649C16.4748 24.4253 16.1777 24.2623 15.9884 24.1797M14.7061 21.465V16.685C14.7061 16.0867 15.1911 15.6017 15.7894 15.6017" fill="#003A99"/>
<path fill-rule="evenodd" clip-rule="evenodd" d="M35.3159 29.3828C35.7307 28.9818 36.3871 28.9763 36.8087 29.3703L43.1118 35.2618C43.1115 35.2615 43.1121 35.2621 43.1118 35.2618C43.3648 35.4972 43.6435 35.7457 43.9328 36.0035C44.6092 36.6063 45.348 37.2648 45.9776 37.9517C46.4543 38.3887 46.8335 38.9216 47.0901 39.5157C47.3545 40.1277 47.4825 40.79 47.4652 41.4565C47.4644 41.4873 47.4623 41.5182 47.4588 41.5489C47.3324 42.6784 46.841 43.7355 46.0596 44.56C45.3272 45.4133 44.5031 46.1831 43.602 46.8557C43.0601 47.2916 42.4096 47.5721 41.7203 47.6668C41.0225 47.7627 40.3118 47.6646 39.6661 47.3832C39.6323 47.3684 39.5992 47.352 39.5671 47.3338C38.4121 46.683 37.3817 45.8328 36.5235 44.8226C35.6391 43.9162 34.7726 43.006 33.9044 42.051C33.1293 41.2083 31.9829 39.8128 31.0461 38.6492C30.5736 38.0623 30.1483 37.5267 29.8411 37.1379C29.6875 36.9435 29.5633 36.7856 29.4774 36.6762L29.344 36.506C29.003 36.0692 29.0459 35.4447 29.4442 35.0595L35.3159 29.3828ZM31.6537 35.9371C31.9455 36.3058 32.3217 36.7786 32.7338 37.2905C33.6756 38.4603 34.7812 39.804 35.5012 40.5866L35.5055 40.5913C36.3612 41.5325 37.2185 42.4329 38.1008 43.3366C38.1191 43.3554 38.1368 43.3749 38.1537 43.3949C38.8373 44.2055 39.6579 44.8896 40.5779 45.4162C40.8463 45.5237 41.1383 45.5598 41.4254 45.5203C41.7289 45.4786 42.0151 45.3541 42.2526 45.1605C42.265 45.1503 42.2776 45.1405 42.2905 45.1309C43.0768 44.5458 43.7952 43.8744 44.4321 43.1294C44.4456 43.1136 44.4595 43.0983 44.4739 43.0833C44.9278 42.6103 45.2172 42.0041 45.3 41.3547C45.3024 41.018 45.2348 40.6843 45.1011 40.3749C44.9614 40.0516 44.753 39.7625 44.4904 39.5278C44.4624 39.5029 44.4358 39.4765 44.4106 39.4488C43.8516 38.8338 43.2419 38.291 42.5948 37.7149C42.2834 37.4376 41.9633 37.1527 41.636 36.8482L41.6341 36.8465L36.0815 31.6564L31.6537 35.9371Z" fill="#003A99"/>
</svg>
