<svg width="53" height="52" viewBox="0 0 53 52" fill="none" xmlns="http://www.w3.org/2000/svg">
<path fill-rule="evenodd" clip-rule="evenodd" d="M24.2071 3.82674C26.437 3.3337 28.7461 3.29298 30.9927 3.70708C33.2322 4.1199 35.3624 4.97602 37.2533 6.22311C38.7081 7.10905 39.904 8.35 40.7238 9.82484C41.5471 11.3059 41.9629 12.9719 41.9301 14.6585C41.9298 14.6765 41.9289 14.6945 41.9277 14.7124C41.7957 16.562 40.9156 17.7799 40.0669 18.8143C40.4062 18.9623 40.7847 19.1387 41.1745 19.3408C41.8265 19.6788 42.5375 20.103 43.1538 20.6048C43.7571 21.096 44.3537 21.7289 44.6547 22.5058C44.661 22.5221 44.6669 22.5385 44.6723 22.555C45.026 23.623 45.0764 24.7652 44.8183 25.8591C44.5602 26.9531 44.0033 27.9574 43.2073 28.7645L43.199 28.7728C41.6953 30.2644 39.7247 31.218 37.6028 31.4811L37.5911 31.4825C35.4674 31.7227 33.327 31.7885 31.1922 31.6793C30.5947 31.6487 30.1356 31.1489 30.1668 30.5629C30.198 29.9769 30.7076 29.5266 31.3051 29.5572C33.3174 29.6601 35.335 29.5982 37.3368 29.3722C38.9734 29.168 40.4932 28.4325 41.6541 27.2828C42.1744 26.7539 42.5385 26.0962 42.7074 25.3801C42.8746 24.6715 42.8445 23.932 42.6207 23.239C42.5047 22.9574 42.2312 22.6154 41.7698 22.2398C41.3096 21.865 40.7395 21.5189 40.1619 21.2194C39.5887 20.9222 39.0351 20.6848 38.6229 20.5214C38.4177 20.44 38.2498 20.3778 38.1348 20.3365C38.0774 20.3159 38.0333 20.3005 38.0045 20.2907L37.9732 20.28L37.9666 20.2778C37.6389 20.1695 37.383 19.9141 37.2789 19.5906C37.1747 19.267 37.2344 18.9141 37.4395 18.6409C37.747 18.2312 38.0314 17.8842 38.2883 17.5708C39.1215 16.5543 39.6648 15.8915 39.7643 14.5906C39.7849 13.2824 39.4602 11.991 38.8215 10.842C38.1783 9.68502 37.239 8.71227 36.0959 8.01962C36.0837 8.0122 36.0716 8.00454 36.0596 7.99665C34.4093 6.90517 32.5488 6.15612 30.5925 5.79552C28.647 5.4369 26.6475 5.46999 24.7157 5.89265C19.9476 7.25951 18.0704 9.57285 17.3126 11.3951C16.9222 12.3338 16.8073 13.1938 16.7898 13.8156C16.7811 14.1258 16.7966 14.3733 16.8132 14.537C16.8215 14.6187 16.8299 14.679 16.8355 14.7152L16.8414 14.7509C16.9291 15.1822 16.7363 15.6205 16.357 15.8554C15.9773 16.0905 15.4891 16.0715 15.1295 15.8076C14.5099 15.3528 13.7356 15.1494 12.9671 15.2396C12.1987 15.3299 11.4951 15.7067 11.0024 16.2921C10.9885 16.3087 10.974 16.3249 10.959 16.3407C10.5037 16.8191 10.3309 17.6531 10.3562 18.5865C10.368 19.0225 10.4214 19.4205 10.4727 19.7105C10.4981 19.8545 10.5225 19.969 10.5399 20.0451C10.5485 20.0831 10.5554 20.1113 10.5597 20.1286L10.5642 20.1461C10.5641 20.1459 10.5642 20.1462 10.5642 20.1461C10.5641 20.1458 10.5642 20.1462 9.51698 20.4182C8.46977 20.6903 8.46969 20.69 8.46961 20.6897L8.46901 20.6875L8.46793 20.6834L8.46489 20.6719L8.4555 20.635C8.44786 20.6045 8.4376 20.5622 8.42553 20.5093C8.40143 20.4037 8.36996 20.2552 8.33784 20.0734C8.31256 19.9303 8.28657 19.7649 8.26344 19.5822C8.22814 19.3034 8.19951 18.9843 8.19028 18.6428C8.16157 17.5812 8.3114 16.0289 9.352 14.9152C10.1981 13.9225 11.399 13.2836 12.7096 13.1297C13.3659 13.0527 14.0247 13.1002 14.6521 13.2633C14.7164 12.5117 14.8934 11.5857 15.3064 10.5926C16.3452 8.09454 18.7947 5.36726 24.143 3.84293C24.1642 3.8369 24.1856 3.8315 24.2071 3.82674ZM10.4884 31.9728C8.4394 31.8031 6.53305 30.8738 5.15799 29.3735C5.11933 29.3314 5.08418 29.2862 5.05287 29.2385C4.48547 28.3745 4.11079 27.4026 3.95342 26.3865C3.79605 25.3704 3.85956 24.3332 4.13976 23.3429C4.15031 23.3056 4.16292 23.2689 4.17754 23.233C4.60576 22.1811 5.31939 21.2642 6.24108 20.5817C6.85096 20.1301 7.53654 19.7925 8.26344 19.5822M10.4884 31.9728C12.2107 32.1828 13.953 32.1818 15.6751 31.97C16.2688 31.8969 16.6897 31.3657 16.6152 30.7835C16.5408 30.2013 15.9991 29.7885 15.4055 29.8615C13.8548 30.0522 12.2858 30.0522 10.7351 29.8615C10.7195 29.8596 10.7039 29.858 10.6882 29.8567C9.21094 29.7388 7.83376 29.0813 6.82817 28.0162C6.45205 27.4222 6.20267 26.7592 6.09552 26.0674C5.98703 25.3669 6.02671 24.6522 6.21185 23.9678C6.49555 23.2984 6.95615 22.7148 7.54661 22.2776C8.15265 21.8288 8.87238 21.5513 9.62777 21.4752C9.94292 21.4434 10.2281 21.2779 10.4082 21.0223C10.5882 20.7668 10.6451 20.4463 10.5642 20.1461M16.8414 14.7509L16.8421 14.7544C16.8421 14.7544 16.8419 14.7533 16.8414 14.7509Z" fill="#003A99"/>
<path fill-rule="evenodd" clip-rule="evenodd" d="M16.3696 21.2445C16.2404 21.2798 16.1187 21.3384 16.011 21.4174C15.8821 21.5121 15.7763 21.6338 15.7013 21.7736C15.6263 21.9134 15.5841 22.0678 15.5777 22.2256C15.5713 22.3835 15.6008 22.5407 15.6641 22.6859C15.7275 22.8312 15.823 22.9607 15.9439 23.0652C16.0647 23.1696 16.2077 23.2463 16.3626 23.2897C16.5174 23.3331 16.6802 23.3421 16.8391 23.316C16.9701 23.2944 17.0958 23.2495 17.2099 23.1836C17.4037 22.9727 17.518 22.7019 17.5318 22.4166C17.5462 22.1176 17.4492 21.8243 17.2599 21.5909C17.1348 21.4784 16.989 21.3901 16.8301 21.3307C16.6827 21.2756 16.5268 21.2465 16.3696 21.2445ZM16.1801 19.1235C16.6644 19.1002 17.1483 19.1756 17.6014 19.3449C18.0545 19.5142 18.4669 19.7737 18.8126 20.1071C18.8346 20.1282 18.8556 20.1503 18.8757 20.1733C19.4438 20.8233 19.7373 21.6617 19.696 22.517C19.6548 23.3722 19.2819 24.1797 18.6538 24.7743C18.6128 24.813 18.5688 24.8486 18.5221 24.8806C18.1261 25.1521 17.6734 25.3335 17.1969 25.4118C16.7203 25.49 16.232 25.4631 15.7674 25.333C15.3029 25.2028 14.8737 24.9727 14.5113 24.6594C14.1488 24.346 13.8621 23.9574 13.6721 23.5217C13.482 23.086 13.3935 22.6143 13.4127 22.1408C13.432 21.6673 13.5587 21.204 13.7836 20.7846C14.0085 20.3651 14.3258 20.0002 14.7127 19.7162C15.0995 19.4323 15.546 19.2365 16.0196 19.1431C16.0726 19.1326 16.1262 19.1261 16.1801 19.1235Z" fill="#003A99"/>
<path fill-rule="evenodd" clip-rule="evenodd" d="M27.3987 15.3362C27.2219 15.3589 27.0541 15.4239 26.9098 15.525C26.8112 15.6988 26.7639 15.8969 26.7746 16.0971C26.7874 16.3368 26.8825 16.5652 27.0446 16.7451C27.2067 16.925 27.4261 17.0458 27.6671 17.0877C27.8616 17.1216 28.0609 17.1025 28.2437 17.0339C28.3925 16.8567 28.4797 16.6358 28.4898 16.4039C28.5018 16.1302 28.4055 15.8627 28.2213 15.6571C28.1138 15.5487 27.9839 15.4639 27.8402 15.4086C27.6997 15.3546 27.5493 15.3299 27.3987 15.3362ZM27.2358 13.2168C27.7114 13.1868 28.188 13.2597 28.6317 13.4305C29.0754 13.6012 29.4754 13.8656 29.8033 14.2049L29.822 14.2243L29.8218 14.2246C30.3919 14.8451 30.691 15.6603 30.6545 16.4949C30.618 17.3295 30.249 18.1166 29.6268 18.6871C29.5591 18.749 29.4837 18.8023 29.4023 18.8455C28.7564 19.188 28.0112 19.3059 27.2883 19.18C26.5653 19.0541 25.9071 18.6918 25.4209 18.1521C24.9348 17.6125 24.6492 16.9272 24.6109 16.2081C24.5725 15.4889 24.7836 14.7782 25.2098 14.1917C25.2559 14.1282 25.3091 14.0698 25.3683 14.0177C25.8749 13.5717 26.5115 13.2929 27.1883 13.2208C27.2041 13.2191 27.2199 13.2178 27.2358 13.2168Z" fill="#003A99"/>
<path fill-rule="evenodd" clip-rule="evenodd" d="M27.339 25.3893C27.1656 25.3245 26.9803 25.2957 26.795 25.3046L26.7785 25.3054L26.7785 25.3052C26.5197 25.3138 26.2704 25.4019 26.0658 25.5567C25.849 25.7639 25.721 26.045 25.7087 26.3425C25.6959 26.6507 25.8085 26.9513 26.0218 27.1781C26.235 27.4049 26.5313 27.5393 26.8456 27.5518C27.1509 27.5639 27.4488 27.4601 27.6776 27.2624C27.8877 27.0431 28.0105 26.7567 28.0231 26.4555C28.0354 26.163 27.9429 25.8761 27.7627 25.6441C27.6389 25.5342 27.4953 25.4477 27.339 25.3893ZM26.6972 23.1817C27.1788 23.1597 27.6598 23.2352 28.1103 23.4035C28.5634 23.5728 28.9758 23.8323 29.3215 24.1657C29.3474 24.1906 29.3719 24.2168 29.3951 24.2441C29.9405 24.8876 30.223 25.7067 30.188 26.5427C30.153 27.3788 29.8028 28.1724 29.2055 28.7698C29.1927 28.7825 29.1797 28.7949 29.1664 28.8069C28.5127 29.3981 27.6463 29.7104 26.7579 29.6751C25.8694 29.6397 25.0317 29.2597 24.4289 28.6186C23.8261 27.9775 23.5078 27.1277 23.5438 26.2564C23.5798 25.385 23.9673 24.5634 24.621 23.9722C24.6372 23.9576 24.6538 23.9434 24.6709 23.9297C25.2453 23.4706 25.9568 23.2079 26.6972 23.1817Z" fill="#003A99"/>
<path fill-rule="evenodd" clip-rule="evenodd" d="M17.4807 23.89C18.0027 23.6033 18.6629 23.786 18.9552 24.2979L20.1686 26.4229C20.2493 26.5643 20.2959 26.7218 20.305 26.8835C20.3282 27.2948 20.3287 27.7069 20.3067 28.1182V33.4297C20.3546 34.1624 20.2298 34.8964 19.9417 35.5745C19.9244 35.6152 19.9046 35.6547 19.8823 35.693C19.5644 36.2386 19.0088 36.4054 18.7588 36.4617C18.473 36.5261 18.2166 36.5259 18.1451 36.5258L13.8566 36.5258L4.91481 36.632C4.31654 36.6391 3.82568 36.1692 3.81844 35.5824C3.8112 34.9957 4.29032 34.5143 4.88858 34.5072L13.85 34.4008L18.0637 34.4008C18.1373 34.1218 18.1643 33.832 18.1429 33.5429C18.141 33.5173 18.14 33.4916 18.14 33.4658V28.0896C18.14 28.0701 18.1406 28.0505 18.1417 28.031C18.1565 27.7677 18.1599 27.5039 18.152 27.2403L17.0648 25.3362C16.7725 24.8242 16.9587 24.1768 17.4807 23.89Z" fill="#003A99"/>
<path fill-rule="evenodd" clip-rule="evenodd" d="M35.2361 35.3405C35.2574 34.7541 35.7594 34.2957 36.3574 34.3166C38.3558 34.3866 40.3425 34.3634 42.3556 34.3399C43.3754 34.3279 44.402 34.3159 45.4404 34.3159C46.0387 34.3159 46.5237 34.7916 46.5237 35.3784C46.5237 35.9652 46.0387 36.4409 45.4404 36.4409C44.4577 36.4409 43.4591 36.4525 42.4523 36.4642C40.407 36.4879 38.3278 36.512 36.28 36.4403C35.6821 36.4193 35.2147 35.9269 35.2361 35.3405Z" fill="#003A99"/>
<path fill-rule="evenodd" clip-rule="evenodd" d="M26.7632 27.6433C27.3615 27.6433 27.8466 28.119 27.8466 28.7058V32.7858C27.8466 32.8856 27.8444 32.9965 27.842 33.1158C27.8354 33.4453 27.8276 33.8379 27.8617 34.2313C27.8736 34.3693 27.8893 34.4839 27.9067 34.5755C28.6078 34.6533 29.3145 34.6737 30.0195 34.6361C30.0391 34.6351 30.0587 34.6346 30.0782 34.6346H32.5699C33.1682 34.6346 33.6532 35.1103 33.6532 35.6971C33.6532 36.2839 33.1682 36.7596 32.5699 36.7596H30.1071C29.1176 36.8103 28.1253 36.7637 27.1453 36.6205C27.0866 36.6119 27.0288 36.5986 26.9723 36.5808C26.3078 36.3705 26.0305 35.7964 25.9174 35.488C25.788 35.1349 25.7314 34.7421 25.7027 34.4109C25.6577 33.8901 25.6699 33.3076 25.6768 32.981C25.6785 32.8974 25.6799 32.8306 25.6799 32.7858V28.7058C25.6799 28.119 26.1649 27.6433 26.7632 27.6433ZM27.9748 34.8113C27.9746 34.8119 27.9714 34.8065 27.9659 34.7936C27.9722 34.8043 27.975 34.8107 27.9748 34.8113Z" fill="#003A99"/>
<path fill-rule="evenodd" clip-rule="evenodd" d="M16.1059 42.4896C15.9323 42.383 15.7289 42.3328 15.5245 42.3461L15.5042 42.3474L15.5041 42.3472C15.3342 42.3551 15.1695 42.402 15.0227 42.4832C14.9537 42.6393 14.9236 42.8101 14.936 42.9815C14.9527 43.2111 15.0449 43.4292 15.1989 43.603C15.3528 43.7767 15.5602 43.8968 15.7897 43.945C15.9689 43.9826 16.1541 43.9749 16.3281 43.9237C16.4281 43.8096 16.4997 43.6735 16.5362 43.526C16.5846 43.3308 16.569 43.1257 16.4918 42.9396C16.4146 42.7536 16.2796 42.5961 16.1059 42.4896ZM15.3918 40.2251C16.0469 40.1847 16.6985 40.3466 17.2551 40.6881C17.8146 41.0314 18.2496 41.5388 18.4985 42.1382C18.7474 42.7377 18.7975 43.3988 18.6416 44.0278C18.4858 44.6567 18.132 45.2216 17.6304 45.6422C17.555 45.7054 17.4712 45.7581 17.3813 45.7989C16.7422 46.0889 16.0244 46.1675 15.3358 46.0228C14.6473 45.8782 14.0253 45.5181 13.5634 44.9968C13.1015 44.4755 12.8248 43.8212 12.7748 43.1323C12.7248 42.4434 12.9043 41.7573 13.2863 41.1771C13.349 41.0818 13.4269 40.997 13.517 40.9258C14.051 40.5041 14.7072 40.2589 15.3918 40.2251Z" fill="#003A99"/>
<path fill-rule="evenodd" clip-rule="evenodd" d="M8.42866 44.504C7.11414 44.5625 5.77115 44.6222 4.42513 44.6222C3.82682 44.6222 3.3418 44.1465 3.3418 43.5597C3.3418 42.9729 3.82682 42.4972 4.42513 42.4972C5.72075 42.4972 7.01943 42.4395 8.34694 42.3804C8.39913 42.3781 8.45136 42.3758 8.50363 42.3735C9.87675 42.3125 11.28 42.2526 12.6887 42.2635C13.2869 42.2681 13.7681 42.7475 13.7634 43.3343C13.7587 43.9211 13.2699 44.393 12.6716 44.3884C11.3286 44.3781 9.98018 44.4351 8.60163 44.4963C8.54403 44.4988 8.48637 44.5014 8.42866 44.504Z" fill="#003A99"/>
<path fill-rule="evenodd" clip-rule="evenodd" d="M16.5834 43.2437C16.6297 42.6587 17.1508 42.2212 17.7473 42.2667C23.9524 42.7392 30.2409 42.6576 36.5506 42.5758C39.5571 42.5368 42.5684 42.4977 45.5778 42.5185C46.1761 42.5226 46.6577 43.0017 46.6534 43.5885C46.6492 44.1752 46.1608 44.6476 45.5625 44.6435C42.6484 44.6233 39.6877 44.6615 36.7062 44.6999C30.3416 44.782 23.8822 44.8653 17.5796 44.3853C16.9831 44.3399 16.5371 43.8288 16.5834 43.2437Z" fill="#003A99"/>
</svg>
