<svg width="52" height="53" viewBox="0 0 52 53" fill="none" xmlns="http://www.w3.org/2000/svg">
<path fill-rule="evenodd" clip-rule="evenodd" d="M30.8733 10.9197C30.5845 10.9304 30.2962 10.941 30.0105 10.951L29.9835 10.9519L16.9835 11.0816L16.9787 11.0816C15.992 11.0872 14.8878 11.0553 13.7863 11.0226L13.6806 11.0195C12.6062 10.9875 11.5345 10.9557 10.5389 10.9544C9.50586 10.953 8.59295 10.985 7.87368 11.0761C7.51468 11.1216 7.22951 11.1788 7.01508 11.2436C6.9609 11.26 6.91387 11.276 6.87339 11.2914C6.86397 11.3411 6.85388 11.3995 6.84341 11.4676C6.78461 11.8501 6.73246 12.4081 6.68839 13.1236C6.60072 14.5473 6.55083 16.4923 6.5238 18.6811C6.48474 21.8429 6.49368 25.4712 6.50165 28.7047C6.50471 29.9465 6.50763 31.1301 6.50763 32.2067V41.0033C6.50763 41.0167 6.50738 41.0301 6.50689 41.0434C6.49893 41.2582 6.48995 41.5279 6.49362 41.7833H16.8277C20.7595 41.675 24.7103 41.675 28.6222 41.675H28.6293C28.8226 41.675 29.0791 41.6768 29.3829 41.6789C30.3794 41.6857 31.885 41.6961 33.3386 41.6591C34.2864 41.635 35.1829 41.5912 35.8781 41.5166C36.2278 41.4792 36.5006 41.4365 36.6927 41.392C36.6966 41.3911 36.7005 41.3902 36.7043 41.3893C36.7405 41.262 36.7781 41.0853 36.8132 40.8565C36.8962 40.3148 36.9465 39.6096 36.9744 38.8587C37.0178 37.6914 37.0048 36.5118 36.9968 35.7864C36.9945 35.5772 36.9926 35.4058 36.9926 35.2833C36.9926 34.685 37.4777 34.2 38.076 34.2C38.6743 34.2 39.1593 34.685 39.1593 35.2833C39.1593 35.382 39.161 35.5313 39.1631 35.72C39.1711 36.433 39.1853 37.7085 39.1396 38.9392C39.1106 39.7185 39.0566 40.5206 38.9548 41.1847C38.9042 41.5148 38.837 41.8437 38.7425 42.1321C38.6624 42.3766 38.507 42.7757 38.1743 43.0609C37.8588 43.3313 37.4352 43.4439 37.1823 43.5026C36.8686 43.5754 36.4984 43.6292 36.1091 43.671C35.3262 43.7549 34.3607 43.8004 33.3937 43.8251C31.8991 43.8631 30.331 43.8522 29.338 43.8454C29.0469 43.8433 28.8052 43.8417 28.6293 43.8417C24.7051 43.8417 20.7768 43.8417 16.8725 43.9496L16.8426 43.9504L5.68429 43.95C5.23523 43.95 4.91836 43.7116 4.74436 43.5013C4.5886 43.3131 4.51165 43.1127 4.47178 42.9882C4.38954 42.7313 4.3586 42.4474 4.34353 42.2289C4.31259 41.7804 4.33032 41.2713 4.34096 40.9833V32.2067C4.34096 31.141 4.33806 29.9647 4.33501 28.7275C4.32703 25.489 4.31802 21.8334 4.35729 18.6543C4.38442 16.4583 4.43474 14.4695 4.52582 12.9905C4.57113 12.2547 4.62799 11.6191 4.7019 11.1384C4.73832 10.9015 4.78383 10.6684 4.84536 10.4672C4.87596 10.3671 4.91918 10.2459 4.98232 10.1249C5.03273 10.0282 5.14054 9.84285 5.34079 9.68736C5.65734 9.43361 6.03588 9.27607 6.38823 9.16957C6.75821 9.05775 7.17196 8.98103 7.60142 8.92663C8.45908 8.818 9.48127 8.78633 10.5417 8.78771C11.5689 8.78903 12.668 8.82173 13.7323 8.85339L13.8506 8.85691C14.9588 8.88983 16.0231 8.92025 16.9642 8.91503C16.965 8.91502 16.9658 8.91502 16.9665 8.91501L29.9483 8.78519C30.2182 8.77573 30.4941 8.76554 30.7732 8.75523C32.0713 8.70727 33.4382 8.65678 34.5988 8.66586C35.3057 8.6714 35.9728 8.69893 36.5237 8.76937C36.7989 8.80456 37.0713 8.85361 37.318 8.92597C37.5462 8.99294 37.8472 9.10623 38.1029 9.32201C38.151 9.36259 38.1955 9.40728 38.2358 9.45557C38.9105 10.2634 39.2554 11.2956 39.2026 12.3459V20.6583C39.2026 21.2566 38.7176 21.7417 38.1193 21.7417C37.521 21.7417 37.036 21.2566 37.036 20.6583V12.3167C37.036 12.2956 37.0366 12.2745 37.0378 12.2535C37.0639 11.807 36.9406 11.3664 36.6904 11C36.5931 10.9729 36.4485 10.9441 36.2489 10.9185C35.8255 10.8644 35.2589 10.8378 34.5819 10.8325C33.4747 10.8238 32.1702 10.8719 30.8733 10.9197Z" fill="#003A99"/>
<path fill-rule="evenodd" clip-rule="evenodd" d="M39.1377 16.7669C39.1448 17.3652 38.6656 17.856 38.0674 17.8631L28.992 17.9714L28.989 17.9715L17.219 18.1446C15.3049 18.2208 13.508 18.2261 11.723 18.2288C11.6524 18.2289 11.5819 18.229 11.5115 18.2291C9.78899 18.2316 8.07373 18.2341 6.24094 18.2959C5.64297 18.3161 5.14188 17.8477 5.12172 17.2497C5.10156 16.6517 5.56997 16.1506 6.16794 16.1305C8.03649 16.0675 9.78308 16.065 11.4986 16.0625C11.5723 16.0624 11.646 16.0623 11.7197 16.0622C13.5108 16.0595 15.2737 16.054 17.1461 15.9791L17.1735 15.978L17.1735 15.9783L28.9602 15.805L28.9632 15.8049L38.0415 15.6966C38.6398 15.6895 39.1306 16.1687 39.1377 16.7669Z" fill="#003A99"/>
<path fill-rule="evenodd" clip-rule="evenodd" d="M12.098 15.9568C12.6963 15.9568 13.1813 16.4418 13.1813 17.0401V19.9868C13.1813 20.5851 12.6963 21.0701 12.098 21.0701C11.4997 21.0701 11.0146 20.5851 11.0146 19.9868V17.0401C11.0146 16.4418 11.4997 15.9568 12.098 15.9568Z" fill="#003A99"/>
<path fill-rule="evenodd" clip-rule="evenodd" d="M9.52276 24.2282C8.48323 24.1266 7.43628 24.1266 6.39674 24.2282C5.80127 24.2863 5.27139 23.8508 5.21322 23.2553C5.15505 22.6598 5.59062 22.1299 6.1861 22.0718C7.36573 21.9565 8.55378 21.9565 9.73341 22.0718C10.3289 22.1299 10.7645 22.6598 10.7063 23.2553C10.6481 23.8508 10.1182 24.2863 9.52276 24.2282Z" fill="#003A99"/>
<path fill-rule="evenodd" clip-rule="evenodd" d="M11.8812 24.2332C12.4795 24.2332 12.9645 24.7182 12.9645 25.3165H11.8812H10.7979C10.7979 24.7182 11.2829 24.2332 11.8812 24.2332ZM11.8812 25.3165H10.7979V41.7832C10.7979 42.3815 11.2829 42.8665 11.8812 42.8665C12.4795 42.8665 12.9645 42.3815 12.9645 41.7832V25.3165H11.8812Z" fill="#003A99"/>
<path fill-rule="evenodd" clip-rule="evenodd" d="M35.5404 22.3562C35.5481 22.9544 35.0694 23.4457 34.4712 23.4534L24.4255 23.5836L19.3685 23.5835L14.8966 23.6916C14.2985 23.706 13.8019 23.2328 13.7874 22.6347C13.773 22.0366 14.2462 21.54 14.8443 21.5255L19.3554 21.4165L24.4184 21.4169L34.4431 21.287C35.0413 21.2792 35.5326 21.7579 35.5404 22.3562Z" fill="#003A99"/>
<path fill-rule="evenodd" clip-rule="evenodd" d="M25.2708 16.3899C25.8691 16.3899 26.3542 16.8749 26.3542 17.4732V29.8876L25.2708 29.8882L24.1875 29.8882V17.4732C24.1875 16.8749 24.6725 16.3899 25.2708 16.3899ZM25.2708 30.9716C24.6725 30.9716 24.1875 30.4865 24.1875 29.8882L25.2708 29.8882L26.3542 29.8876C26.3542 30.4859 25.8691 30.9716 25.2708 30.9716Z" fill="#003A99"/>
<path fill-rule="evenodd" clip-rule="evenodd" d="M18.8304 26.6158C19.2419 26.5194 19.6706 26.5238 20.08 26.6288L20.0875 26.6308L20.0875 26.6308C20.5527 26.7537 20.9743 27.0043 21.3044 27.3543C21.6346 27.7043 21.8603 28.1397 21.9559 28.6113C22.0748 29.1976 21.6958 29.7694 21.1094 29.8883C20.5231 30.0071 19.9513 29.6282 19.8324 29.0418C19.8172 28.9665 19.7811 28.897 19.7284 28.8411C19.6766 28.7862 19.6106 28.7466 19.5378 28.7266C19.4679 28.7093 19.3949 28.7089 19.3248 28.7253C19.2777 28.7364 19.2328 28.7548 19.1917 28.7799C19.0507 28.9772 18.9683 29.2112 18.9553 29.4548C18.9405 29.732 19.0163 30.0064 19.1713 30.2367C19.1876 30.261 19.203 30.286 19.2173 30.3115C19.4043 30.6448 19.6648 30.9593 20.0037 31.3413C20.0464 31.3894 20.0909 31.4392 20.1367 31.4904C20.4211 31.8086 20.7561 32.1832 21.0442 32.5931C21.4919 33.1482 21.7721 33.8198 21.8516 34.5292C21.9328 35.2546 21.8004 35.9879 21.4707 36.6392C21.4516 36.6769 21.4303 36.7135 21.4069 36.7488C21.0233 37.327 20.4354 37.7389 19.761 37.902C19.0866 38.0652 18.3755 37.9676 17.77 37.6287C17.1646 37.2898 16.7095 36.7347 16.4959 36.0745C16.2823 35.4144 16.326 34.6979 16.6183 34.0686C16.8703 33.5259 17.5144 33.2903 18.0571 33.5423C18.5998 33.7943 18.8354 34.4385 18.5834 34.9811C18.5213 35.1149 18.512 35.2672 18.5574 35.4076C18.6028 35.5479 18.6995 35.666 18.8283 35.738C18.957 35.8101 19.1082 35.8308 19.2515 35.7961C19.3769 35.7658 19.4882 35.695 19.5687 35.5956C19.6849 35.3375 19.7299 35.0524 19.6983 34.7702C19.6641 34.4641 19.5412 34.1747 19.3447 33.9374C19.3249 33.9135 19.3061 33.8887 19.2885 33.8632C19.0772 33.558 18.8298 33.2806 18.5315 32.9461C18.4833 32.8921 18.4339 32.8366 18.383 32.7793C18.0471 32.4007 17.6568 31.9473 17.3486 31.4085C16.9479 30.7958 16.7526 30.071 16.7917 29.3392C16.8316 28.5922 17.1136 27.8786 17.595 27.306C17.6322 27.2617 17.6729 27.2205 17.7168 27.1827C18.0369 26.9067 18.4189 26.7122 18.8304 26.6158Z" fill="#003A99"/>
<path fill-rule="evenodd" clip-rule="evenodd" d="M19.3773 36.3015C19.9756 36.3015 20.4606 36.7865 20.4606 37.3848H19.3773H18.2939C18.2939 36.7865 18.779 36.3015 19.3773 36.3015ZM19.3773 37.3848H18.2939V38.8365C18.2939 39.4348 18.779 39.9198 19.3773 39.9198C19.9756 39.9198 20.4606 39.4348 20.4606 38.8365V37.3848H19.3773Z" fill="#003A99"/>
<path fill-rule="evenodd" clip-rule="evenodd" d="M19.2044 24.5583C19.8027 24.5583 20.2878 25.0434 20.2878 25.6417V26.595C20.2878 27.1933 19.8027 27.6784 19.2044 27.6784C18.6061 27.6784 18.1211 27.1933 18.1211 26.595V25.6417C18.1211 25.0434 18.6061 24.5583 19.2044 24.5583Z" fill="#003A99"/>
<path fill-rule="evenodd" clip-rule="evenodd" d="M43.796 21.5013C43.5923 21.6888 43.4004 21.9268 43.3047 22.0573L43.244 22.1401L36.9882 27.9569C36.65 28.2669 36.2714 28.6133 35.8723 28.9786C35.0409 29.7394 34.1204 30.5818 33.2903 31.3461C32.2223 32.3294 31.3545 33.1377 30.9973 33.4901C30.7158 34.2901 30.5426 35.1226 30.4811 35.9655C31.2482 35.8027 31.9978 35.5622 32.7179 35.2473C33.1929 34.7607 34.2259 33.7476 34.5591 33.4338C35.4288 32.6104 36.1251 31.9408 36.8019 31.2899C37.6734 30.4517 38.5127 29.6446 39.6483 28.5801L39.7567 28.45L42.8793 25.5254L42.8822 25.5226L45.1763 23.3584L45.1785 23.3563C45.2288 23.3091 45.2778 23.2648 45.3184 23.228L45.3207 23.2259C45.3642 23.1865 45.3977 23.1562 45.4286 23.1271C45.4339 23.1221 45.439 23.1174 45.4437 23.1128C45.3884 23.0235 45.3174 22.9442 45.2334 22.8789L45.1798 22.8373L45.1318 22.7893C44.9227 22.5803 44.7486 22.3644 44.6172 22.2007C44.4709 22.0186 44.3874 21.915 44.3084 21.836C44.1771 21.7046 44.0247 21.5537 43.8732 21.4333C43.8496 21.4531 43.8238 21.4757 43.796 21.5013ZM43.951 19.1857C43.5338 19.1627 43.1841 19.313 42.9608 19.4376C42.7152 19.5745 42.4995 19.7497 42.3283 19.9074C42.0311 20.1811 41.7778 20.486 41.6226 20.6892L35.5212 26.3623C35.1864 26.6693 34.8103 27.0134 34.4133 27.3768C33.5805 28.1389 32.6552 28.9857 31.8228 29.7521C30.619 30.8604 29.5395 31.8639 29.2609 32.1679L29.1199 32.3217L29.0461 32.5169C28.4705 34.0398 28.2185 35.6659 28.306 37.2916L28.3673 38.4289L29.5001 38.3108C30.9892 38.1556 32.4429 37.7584 33.804 37.1349L33.9975 37.0462L34.1431 36.8909C34.4459 36.5679 35.6842 35.3504 36.0453 35.0105L36.0476 35.0083C36.9512 34.1527 37.6503 33.4803 38.3236 32.8326C39.1906 31.9986 40.0149 31.2056 41.1785 30.1155L41.2272 30.0698L41.3355 29.9399L44.3634 27.104L44.3663 27.1012L46.6604 24.937C46.6601 24.9373 46.6607 24.9366 46.6604 24.937C46.6821 24.9167 46.7112 24.8915 46.7442 24.863C47.0285 24.6177 47.6745 24.0604 47.6745 23.0633V22.9186L47.6365 22.7791C47.4698 22.1658 47.1161 21.6204 46.6257 21.2182C46.5238 21.112 46.4255 20.9921 46.3063 20.8438C46.297 20.8321 46.2873 20.8201 46.2774 20.8077C46.161 20.6625 46.0073 20.4707 45.8405 20.3039L45.8308 20.2942C45.703 20.1664 45.4646 19.9279 45.1989 19.7194C45.062 19.6119 44.8917 19.4914 44.7016 19.3936C44.5334 19.3071 44.269 19.1958 43.951 19.1857Z" fill="#003A99"/>
</svg>
