<svg width="52" height="53" viewBox="0 0 52 53" fill="none" xmlns="http://www.w3.org/2000/svg">
<path fill-rule="evenodd" clip-rule="evenodd" d="M23.2442 7.21129C25.7378 7.02101 28.2393 7.45244 30.5327 8.46833C30.5442 8.47342 30.5556 8.47873 30.5669 8.48424C34.0278 10.1713 36.7877 13.0577 38.3539 16.628C39.6701 19.5119 40.1559 22.7177 39.7546 25.8723C39.3712 28.8866 38.1928 31.7356 36.3488 34.1171C36.4928 36.4373 36.4928 39.9613 36.4928 42.1081V42.1371C36.4928 42.1534 36.4925 42.1697 36.4917 42.186C36.4854 42.326 36.48 42.4817 36.4743 42.6485C36.4538 43.2476 36.4283 43.9908 36.3338 44.6718C36.2188 45.5011 35.9661 46.5811 35.2061 47.2659C35.1846 47.2853 35.1622 47.3038 35.1392 47.3214C34.5023 47.8058 33.7338 48.0756 32.9408 48.0944C30.9385 48.3864 28.9154 48.5027 26.8936 48.4421H21.2141C21.1983 48.4421 21.1825 48.4417 21.1668 48.441C20.9007 48.4286 20.4451 48.422 19.9002 48.4141C19.5186 48.4085 19.0931 48.4023 18.6583 48.3931C18.145 48.3822 17.6281 48.367 17.1899 48.343C16.7861 48.321 16.3576 48.2878 16.072 48.2201C15.6674 48.1258 15.4117 47.8494 15.2673 47.6068C15.1328 47.3811 15.0531 47.1212 14.9973 46.8688C14.8848 46.3594 14.8091 45.584 14.7765 44.4031C14.765 44.2507 14.7572 44.1152 14.75 43.9908C14.7339 43.7089 14.721 43.4835 14.6753 43.2461C14.6481 43.1046 14.6165 43.0093 14.586 42.9441C13.2732 42.7077 11.9442 42.5755 10.611 42.5485C10.5904 42.5481 10.5698 42.5471 10.5493 42.5454C9.87386 42.4908 9.29502 42.2171 8.85938 41.7382C8.44636 41.2842 8.22603 40.7167 8.10414 40.1698C7.86574 39.1001 7.93529 37.7717 8.04909 36.5546C8.09768 36.0351 8.15368 35.5387 8.20745 35.0623C8.28894 34.34 8.36529 33.6634 8.40283 33.0207C8.43289 32.5061 8.43161 32.0865 8.39333 31.7639C8.37449 31.6051 8.34879 31.489 8.3226 31.4079C8.30824 31.3634 8.29571 31.3356 8.28778 31.3202C8.16246 31.189 8.00947 31.0883 7.84015 31.0259C7.65415 30.9573 7.4543 30.937 7.25869 30.967C7.21896 30.9731 7.17892 30.9768 7.13877 30.9782C6.8205 30.989 6.30144 31.0007 5.81418 30.9057C5.39398 30.8238 4.56894 30.5794 4.25765 29.7225C4.16096 29.4563 4.11027 29.1709 4.13696 28.8699C4.16348 28.5707 4.2605 28.3236 4.36468 28.1285C4.46205 27.9461 4.58086 27.7828 4.66675 27.666C4.68425 27.6421 4.70112 27.6193 4.7175 27.5971C4.7921 27.496 4.85666 27.4086 4.92497 27.3059C5.18993 26.9078 5.51262 26.4849 5.80531 26.1013C5.96616 25.8905 6.11796 25.6916 6.24612 25.5151L6.26069 25.4951C6.41118 25.2978 6.56089 25.1033 6.709 24.9105C7.41589 23.9899 8.09142 23.1102 8.69513 22.1817C9.7077 17.1909 11.5545 12.7469 16.1933 9.57837L16.2204 9.56048C18.34 8.20784 20.7507 7.40157 23.2442 7.21129ZM29.6857 10.4082C27.707 9.5351 25.5499 9.16462 23.3996 9.3287C21.2485 9.49285 19.1687 10.1871 17.3389 11.3516C13.2951 14.1198 11.6462 18.0019 10.696 22.8037C10.6701 22.9348 10.6201 23.0596 10.5487 23.1718C9.86339 24.2482 9.08284 25.2642 8.33366 26.2393C8.19174 26.424 8.05094 26.6073 7.91213 26.7892C7.71891 27.0548 7.54174 27.2858 7.37354 27.5052C7.11945 27.8365 6.88581 28.1412 6.64819 28.4982C6.56038 28.6301 6.47242 28.7507 6.40122 28.8472C6.58599 28.8643 6.79791 28.8642 7.01603 28.8577C7.53262 28.7896 8.05804 28.8483 8.54849 29.0291C9.06001 29.2178 9.51734 29.5335 9.87913 29.9476C9.89469 29.9654 9.90966 29.9838 9.92401 30.0026C10.2703 30.4574 10.403 31.022 10.4608 31.509C10.5209 32.0163 10.5147 32.5815 10.4816 33.1469C10.4417 33.8311 10.3525 34.6279 10.2654 35.4068C10.2133 35.8722 10.1619 36.3313 10.1222 36.7562C10.0076 37.9821 9.97883 38.9991 10.1349 39.6993C10.2102 40.0373 10.3103 40.2108 10.3862 40.2943C10.4371 40.3502 10.5112 40.4076 10.6886 40.4264C12.2398 40.4598 13.7856 40.6251 15.3099 40.9208C15.4659 40.951 15.613 41.0173 15.7401 41.1144C16.376 41.6007 16.6139 42.2923 16.7188 42.8373C16.7938 43.2269 16.8195 43.6765 16.8383 44.0046C16.844 44.1036 16.849 44.1916 16.8546 44.2635C16.856 44.2816 16.8569 44.2997 16.8574 44.3179C16.8831 45.2704 16.9365 45.8548 16.9918 46.2028C17.0816 46.2096 17.1847 46.2164 17.3014 46.2228C17.7052 46.2448 18.1951 46.2595 18.7017 46.2702C19.0878 46.2784 19.4906 46.2844 19.8667 46.2899C20.4336 46.2983 20.9399 46.3058 21.237 46.3187H26.9091L26.9402 46.3192C28.8692 46.378 30.7997 46.2655 32.7096 45.9831C32.7583 45.9759 32.8073 45.9722 32.8564 45.9721C33.2133 45.9711 33.5608 45.8586 33.8523 45.6502C34.0004 45.4937 34.1696 45.1116 34.2718 44.3745C34.3493 43.8162 34.3696 43.2325 34.3899 42.6502C34.3962 42.4707 34.4024 42.2913 34.4103 42.1128C34.4103 39.7964 34.409 36.0503 34.2434 33.8552C34.2226 33.5798 34.3079 33.307 34.4812 33.0947C36.2259 30.9568 37.3386 28.3572 37.6894 25.5992C38.0402 22.8411 37.6148 20.0381 36.4628 17.5171L36.4557 17.5018C35.0943 14.394 32.6951 11.8802 29.6857 10.4082Z" fill="#003A99"/>
<path fill-rule="evenodd" clip-rule="evenodd" d="M24.9758 16.1371C26.2959 16.085 27.6178 16.1777 28.9185 16.4135C29.079 16.4426 29.2306 16.5097 29.361 16.6095C29.6223 16.8093 29.7581 17.0697 29.8297 17.2417C29.9065 17.4265 29.9536 17.6185 29.9851 17.7885C30.0482 18.1286 30.074 18.5214 30.0851 18.8974C30.0992 19.3742 30.0906 19.9389 30.0829 20.4408C30.079 20.6948 30.0753 20.9327 30.075 21.135C30.1747 22.9912 30.1376 24.8525 29.964 26.7032C29.9217 27.1545 29.6029 27.5287 29.1705 27.6345C28.4093 27.8207 27.6274 27.904 26.8452 27.8824C25.9103 27.9864 24.5106 27.9888 23.8564 27.9888C22.4942 28.1768 21.113 28.1734 19.7514 27.9785C19.5664 27.952 19.3917 27.8752 19.2458 27.7561C19.0049 27.5597 18.8912 27.3077 18.8439 27.1938C18.7839 27.0492 18.7409 26.8969 18.7085 26.7599C18.6432 26.4832 18.5939 26.1497 18.5547 25.8029C18.4755 25.1023 18.4245 24.226 18.391 23.373C18.3259 21.7165 18.3238 20.0645 18.3237 19.76C18.2914 19.084 18.2918 18.4067 18.325 17.7307C18.3313 17.6025 18.3604 17.4765 18.4107 17.3589C18.5298 17.0809 18.7159 16.8381 18.9517 16.6532C19.1707 16.4814 19.4259 16.3647 19.6968 16.3121C20.1092 16.2053 20.5322 16.1467 20.9577 16.1374L20.98 16.1369L24.9758 16.1371ZM27.9703 18.4093C26.9995 18.2699 26.018 18.2198 25.0377 18.2596C25.0239 18.2602 25.01 18.2605 24.9962 18.2605H20.9918C20.7886 18.2655 20.5863 18.2885 20.3872 18.329C20.3769 18.7796 20.3828 19.2304 20.4049 19.6807C20.4058 19.6984 20.4062 19.7161 20.4062 19.7338C20.4062 19.9483 20.4063 21.6205 20.4718 23.288C20.5047 24.1249 20.5533 24.9386 20.6235 25.5597C20.6402 25.7074 20.6574 25.8377 20.6748 25.9503C21.6621 26.0414 22.6571 26.0165 23.6402 25.8758C23.6882 25.8689 23.7365 25.8655 23.785 25.8655C24.4668 25.8655 25.8621 25.8638 26.6794 25.7646C26.7327 25.7581 26.7865 25.7558 26.8402 25.7578C27.2135 25.7716 27.5869 25.7542 27.9566 25.7059C28.0629 24.2141 28.0755 22.7166 27.9941 21.2227C27.993 21.2031 27.9925 21.1834 27.9925 21.1638C27.9925 20.8825 27.9971 20.5995 28.0016 20.318C28.0091 19.8567 28.0166 19.3997 28.0036 18.9614C27.9972 18.7445 27.9859 18.5599 27.9703 18.4093Z" fill="#003A99"/>
<path fill-rule="evenodd" clip-rule="evenodd" d="M21.1077 13.0387C21.6827 13.0387 22.1489 13.514 22.1489 14.1004H21.1077H20.0664C20.0664 13.514 20.5326 13.0387 21.1077 13.0387ZM21.1077 14.1004H20.0664V16.267C20.0664 16.8534 20.5326 17.3287 21.1077 17.3287C21.6827 17.3287 22.1489 16.8534 22.1489 16.267V14.1004H21.1077Z" fill="#003A99"/>
<path fill-rule="evenodd" clip-rule="evenodd" d="M25.7395 12.8004C26.3146 12.8004 26.7807 13.2757 26.7807 13.8621H25.7395H24.6982C24.6982 13.2757 25.1644 12.8004 25.7395 12.8004ZM25.7395 13.8621H24.6982V16.4837C24.6982 17.0701 25.1644 17.5454 25.7395 17.5454C26.3146 17.5454 26.7807 17.0701 26.7807 16.4837V13.8621H25.7395Z" fill="#003A99"/>
<path fill-rule="evenodd" clip-rule="evenodd" d="M28.248 19.9505C28.248 19.3641 28.7142 18.8888 29.2893 18.8888V19.9505V21.0121C28.7142 21.0121 28.248 20.5368 28.248 19.9505ZM29.2893 19.9505V21.0121H31.8818C32.4569 21.0121 32.923 20.5368 32.923 19.9505C32.923 19.3641 32.4569 18.8888 31.8818 18.8888H29.2893V19.9505Z" fill="#003A99"/>
<path fill-rule="evenodd" clip-rule="evenodd" d="M31.9234 24.8686C31.0934 24.8512 30.2634 24.9054 29.4423 25.0305C28.8736 25.1171 28.3436 24.7172 28.2586 24.1373C28.1737 23.5574 28.5659 23.0171 29.1346 22.9304C30.0716 22.7877 31.0188 22.7259 31.966 22.7457C32.541 22.7577 32.9975 23.2426 32.9857 23.8288C32.974 24.4151 32.4983 24.8806 31.9234 24.8686Z" fill="#003A99"/>
<path fill-rule="evenodd" clip-rule="evenodd" d="M22.552 26.2554C23.1271 26.2554 23.5932 26.7307 23.5932 27.317V30.2204C23.5932 30.8067 23.1271 31.282 22.552 31.282C21.9769 31.282 21.5107 30.8067 21.5107 30.2204V27.317C21.5107 26.7307 21.9769 26.2554 22.552 26.2554Z" fill="#003A99"/>
<path fill-rule="evenodd" clip-rule="evenodd" d="M27.2065 27.1654C27.2065 26.579 26.7403 26.1038 26.1653 26.1038L27.2065 27.1654ZM26.1653 26.1038C25.5902 26.1038 25.124 26.5791 25.124 27.1654L26.1653 26.1038ZM25.124 27.1654H26.1653H25.124ZM26.1653 27.1654H25.124L25.124 27.1721L25.1241 27.189L25.1243 27.2515C25.1246 27.3052 25.1252 27.3823 25.1264 27.4773C25.1288 27.6671 25.1336 27.9299 25.1432 28.222C25.1617 28.7856 25.2 29.5288 25.2876 30.0524C25.3844 30.6304 25.9224 31.019 26.4893 30.9203C27.0561 30.8216 27.4372 30.2731 27.3404 29.6951C27.2793 29.3303 27.2432 28.7194 27.2245 28.1509C27.2155 27.877 27.211 27.6293 27.2088 27.45C27.2076 27.3606 27.2071 27.2885 27.2068 27.2393L27.2066 27.1832L27.2065 27.1693L27.2065 27.1654" fill="#003A99"/>
<path fill-rule="evenodd" clip-rule="evenodd" d="M19.2792 20.3337C19.3063 20.9194 18.8626 21.4166 18.2881 21.4442L16.0356 21.5525C15.4612 21.5802 14.9736 21.1278 14.9465 20.5421C14.9194 19.9564 15.3631 19.4592 15.9375 19.4316L18.19 19.3232C18.7645 19.2956 19.2521 19.748 19.2792 20.3337Z" fill="#003A99"/>
<path fill-rule="evenodd" clip-rule="evenodd" d="M19.3821 23.8637C19.4336 24.4476 19.0111 24.9637 18.4384 25.0162L16.3134 25.2112C15.7406 25.2638 15.2345 24.833 15.183 24.249C15.1314 23.665 15.5539 23.149 16.1267 23.0964L18.2517 22.9014C18.8244 22.8489 19.3305 23.2797 19.3821 23.8637Z" fill="#003A99"/>
<path fill-rule="evenodd" clip-rule="evenodd" d="M19.6602 37.7513C20.1314 37.3967 20.7022 37.2066 21.2878 37.2093C21.8734 37.2119 22.4425 37.4072 22.9106 37.7661C23.3786 38.125 23.7205 38.6283 23.8855 39.2012C24.0505 39.7741 24.0297 40.386 23.8263 40.9459C23.8175 40.9703 23.8077 40.9944 23.7971 41.0181C23.5111 41.6568 22.9999 42.1623 22.365 42.4342C21.7301 42.7061 21.0181 42.7244 20.3706 42.4854C20.3481 42.4772 20.3259 42.4681 20.304 42.4582C19.6734 42.1741 19.1698 41.6597 18.8921 41.0163C18.6145 40.3729 18.5828 39.6469 18.8034 38.9808C18.808 38.967 18.8128 38.9533 18.818 38.9396C18.9822 38.5039 19.2478 38.1154 19.5918 37.8075C19.6138 37.7878 19.6367 37.7691 19.6602 37.7513ZM20.9325 39.4348C20.8631 39.505 20.8078 39.5886 20.77 39.6807C20.7229 39.839 20.7328 40.0094 20.7983 40.1612C20.8618 40.3083 20.9733 40.428 21.1132 40.5003C21.2595 40.5453 21.417 40.5372 21.5585 40.4765C21.6992 40.4163 21.8147 40.3083 21.8857 40.1715C21.9217 40.0506 21.9225 39.9212 21.8874 39.7994C21.8487 39.6652 21.7686 39.5472 21.6589 39.4631C21.5492 39.379 21.4158 39.3332 21.2785 39.3326C21.1557 39.332 21.0356 39.3677 20.9325 39.4348Z" fill="#003A99"/>
<path fill-rule="evenodd" clip-rule="evenodd" d="M21.2356 41.5521C21.8107 41.5521 22.2768 42.0274 22.2768 42.6138V46.6655C22.2768 47.2518 21.8107 47.7271 21.2356 47.7271C20.6605 47.7271 20.1943 47.2518 20.1943 46.6655V42.6138C20.1943 42.0274 20.6605 41.5521 21.2356 41.5521Z" fill="#003A99"/>
<path fill-rule="evenodd" clip-rule="evenodd" d="M29.7353 37.9771C30.3104 37.9771 30.7765 38.4524 30.7765 39.0387C30.7765 40.6703 30.6389 42.8788 30.521 44.771C30.4705 45.5811 30.4236 46.3332 30.3927 46.9573C30.3637 47.5429 29.8746 47.9936 29.3003 47.964C28.7259 47.9345 28.2839 47.4358 28.3129 46.8502C28.3467 46.1663 28.3962 45.3739 28.4483 44.5386C28.5645 42.6765 28.694 40.601 28.694 39.0387C28.694 38.4524 29.1602 37.9771 29.7353 37.9771Z" fill="#003A99"/>
<path fill-rule="evenodd" clip-rule="evenodd" d="M29.2121 33.9168C29.5238 33.8666 29.8413 33.8666 30.153 33.9168L30.1881 33.923C30.5705 33.9983 30.9324 34.1571 31.2489 34.3885C31.5655 34.6199 31.8291 34.9185 32.0218 35.2636C32.0309 35.2799 32.0396 35.2964 32.0478 35.3131C32.2843 35.7944 32.3938 36.3301 32.3655 36.8676C32.3376 37.3958 32.1777 37.9077 31.901 38.3547C31.6332 38.8225 31.2386 39.2018 30.7643 39.4469C30.2816 39.6964 29.7377 39.7958 29.2001 39.7329C28.6624 39.6699 28.1548 39.4473 27.7402 39.0928C27.3255 38.7382 27.0221 38.2673 26.8677 37.7384C26.8568 37.701 26.8478 37.6629 26.841 37.6244C26.6892 36.7687 26.8668 35.8862 27.3367 35.1605C27.3506 35.139 27.3653 35.118 27.3807 35.0976C27.8162 34.5212 28.4298 34.1117 29.1222 33.9354C29.1518 33.9279 29.1818 33.9216 29.2121 33.9168ZM29.5814 36.0081C29.3749 36.0704 29.1912 36.1942 29.0539 36.3635C28.9056 36.6088 28.8446 36.8985 28.8807 37.1838C28.922 37.2931 28.9899 37.3902 29.0784 37.4659C29.1804 37.5531 29.3054 37.6079 29.4377 37.6234C29.5701 37.6389 29.7039 37.6144 29.8228 37.553C29.9416 37.4916 30.0401 37.396 30.1061 37.278C30.1153 37.2614 30.125 37.2451 30.1351 37.2291C30.2251 37.0867 30.2771 36.9228 30.286 36.7537C30.2944 36.5945 30.2643 36.4358 30.1987 36.2914C30.1562 36.2221 30.1008 36.1619 30.0355 36.1142C29.9677 36.0646 29.8909 36.0297 29.8096 36.0113C29.7339 36.0007 29.6573 35.9997 29.5814 36.0081Z" fill="#003A99"/>
<path fill-rule="evenodd" clip-rule="evenodd" d="M37.8955 25.4538C37.8955 24.8674 38.3617 24.3921 38.9368 24.3921H43.1868C43.7618 24.3921 44.228 24.8674 44.228 25.4538C44.228 26.0401 43.7618 26.5154 43.1868 26.5154H38.9368C38.3617 26.5154 37.8955 26.0401 37.8955 25.4538Z" fill="#003A99"/>
<path fill-rule="evenodd" clip-rule="evenodd" d="M43.0715 24.3796C43.6417 24.3031 44.1647 24.7123 44.2397 25.2936C44.3018 25.7749 44.3018 26.2566 44.3018 26.6631C44.3018 26.6726 44.3018 26.6821 44.3018 26.6915C44.3018 27.1283 44.3032 27.4881 44.3464 27.8321C44.4196 28.4137 44.0164 28.9456 43.446 29.0202C42.8756 29.0948 42.354 28.6837 42.2808 28.1022C42.2192 27.6119 42.2192 27.1264 42.2193 26.7182C42.2193 26.7093 42.2193 26.7004 42.2193 26.6915C42.2193 26.2536 42.2177 25.9015 42.175 25.5706C42.1 24.9893 42.5014 24.456 43.0715 24.3796Z" fill="#003A99"/>
<path fill-rule="evenodd" clip-rule="evenodd" d="M42.2163 28.4514C42.9526 28.0397 43.8192 27.9431 44.6253 28.1829C44.717 28.2101 44.8046 28.2501 44.8856 28.3018L45.2256 28.5184C45.2676 28.5452 45.3077 28.575 45.3455 28.6076C46.2344 29.3728 46.3078 30.4828 46.0595 31.3331C45.821 32.1502 45.2453 32.9311 44.4684 33.3527C44.0374 33.6213 43.5374 33.7534 43.0319 33.7318C42.5094 33.7094 42.0062 33.5238 41.5906 33.2C41.175 32.8762 40.8671 32.4299 40.7087 31.9217C40.5513 31.4168 40.5489 30.8749 40.7019 30.3687C40.9384 29.5509 41.4828 28.8615 42.2163 28.4514ZM43.9249 30.1935C43.6838 30.1506 43.4343 30.1921 43.2177 30.3132C42.9656 30.4541 42.7788 30.6913 42.6984 30.9726L42.6928 30.992L42.6926 30.992C42.664 31.0853 42.6643 31.1853 42.6933 31.2785C42.7224 31.3717 42.7788 31.4535 42.855 31.5128C42.9312 31.5722 43.0235 31.6062 43.1193 31.6103C43.2151 31.6144 43.3098 31.5884 43.3906 31.5358C43.4189 31.5173 43.4481 31.5003 43.478 31.4847C43.7202 31.3587 43.9666 31.0594 44.0636 30.7273C44.1405 30.4639 44.0926 30.3334 44.0353 30.2639L43.9249 30.1935Z" fill="#003A99"/>
<path fill-rule="evenodd" clip-rule="evenodd" d="M42.4336 19.287C42.5113 19.868 42.1124 20.4032 41.5426 20.4824C40.5373 20.6221 39.5428 20.6221 38.6276 20.6221C38.6174 20.6221 38.6071 20.6221 38.5969 20.6221C38.0218 20.6221 37.5557 20.1468 37.5557 19.5604C37.5557 18.9741 38.0218 18.4988 38.5969 18.4988C39.5434 18.4988 40.4078 18.4972 41.2612 18.3785C41.831 18.2993 42.3559 18.706 42.4336 19.287Z" fill="#003A99"/>
<path fill-rule="evenodd" clip-rule="evenodd" d="M44.4678 16.6034C45.0888 16.7452 45.6376 17.1152 46.0089 17.6438C46.3873 18.1826 46.5532 18.8465 46.4744 19.5037C46.4107 20.1633 46.1191 20.7786 45.6515 21.2395C45.179 21.7051 44.5582 21.9822 43.9022 22.0203C43.2462 22.0584 42.5986 21.855 42.0773 21.4471C41.556 21.0391 41.1958 20.4539 41.0623 19.7979L41.0617 19.7952L41.0617 19.7952C40.9673 19.3252 40.995 18.8383 41.1421 18.3827C41.2892 17.9271 41.5505 17.5186 41.9002 17.1977C42.2499 16.8768 42.6758 16.6547 43.1356 16.5534C43.5771 16.4561 44.0351 16.4735 44.4678 16.6034ZM43.8919 18.6441C43.7895 18.611 43.6804 18.6057 43.5754 18.6288C43.4704 18.652 43.3732 18.7027 43.2933 18.776C43.2135 18.8492 43.1538 18.9425 43.1202 19.0466C43.0868 19.1502 43.0804 19.2608 43.1016 19.3677C43.1339 19.5248 43.2203 19.6649 43.3452 19.7626C43.4705 19.8607 43.6261 19.9096 43.7838 19.9004C43.9414 19.8912 44.0906 19.8246 44.2041 19.7128C44.3177 19.6009 44.388 19.4511 44.4023 19.2908C44.4036 19.2771 44.405 19.2635 44.4068 19.2499C44.4235 19.1193 44.3909 18.9871 44.3157 18.88C44.2405 18.7729 44.1282 18.6989 44.0016 18.673C43.9645 18.6654 43.9279 18.6557 43.8919 18.6441Z" fill="#003A99"/>
<path fill-rule="evenodd" clip-rule="evenodd" d="M34.708 13.7538C34.708 13.1675 35.1742 12.6921 35.7493 12.6921H43.1443C43.7193 12.6921 44.1855 13.1675 44.1855 13.7538C44.1855 14.3401 43.7193 14.8155 43.1443 14.8155H35.7493C35.1742 14.8155 34.708 14.3401 34.708 13.7538Z" fill="#003A99"/>
<path fill-rule="evenodd" clip-rule="evenodd" d="M43.3568 9.70215C43.9319 9.70215 44.3981 10.1775 44.3981 10.7638C44.3981 11.4722 44.3389 12.2145 44.2837 12.9069C44.2626 13.1716 44.242 13.429 44.2256 13.6744C44.1865 14.2594 43.6897 14.7012 43.116 14.6614C42.5422 14.6215 42.1088 14.1149 42.148 13.5299C42.1686 13.222 42.192 12.9284 42.2147 12.6442C42.2671 11.9875 42.3156 11.3809 42.3156 10.7638C42.3156 10.1775 42.7817 9.70215 43.3568 9.70215Z" fill="#003A99"/>
<path fill-rule="evenodd" clip-rule="evenodd" d="M42.9036 5.65929C43.2973 5.60582 43.6979 5.64767 44.0728 5.78147C44.4495 5.91591 44.7897 6.13936 45.0655 6.43356C45.0793 6.44825 45.0926 6.46334 45.1055 6.47882C45.4343 6.87251 45.6477 7.35269 45.7211 7.86433C45.7915 8.35479 45.7306 8.85512 45.5454 9.31258C45.3613 9.88255 44.9861 10.3691 44.4846 10.6859C43.9649 11.0143 43.3454 11.1378 42.7426 11.0331C42.1399 10.9284 41.5954 10.6027 41.2117 10.1174C40.8389 9.64598 40.6427 9.05547 40.657 8.45127C40.6393 7.94661 40.7581 7.44632 41.001 7.00543C41.2522 6.54931 41.6258 6.17567 42.0779 5.9283L42.0781 5.9282C42.3348 5.7878 42.6146 5.69666 42.9036 5.65929ZM43.3849 7.7856C43.3184 7.76187 43.2473 7.75453 43.1775 7.76417L43.1663 7.76572L43.1663 7.76566C43.13 7.77026 43.0949 7.78165 43.0626 7.79925M43.3849 7.7856C43.4424 7.80613 43.4951 7.83844 43.5398 7.88043L43.3849 7.7856ZM43.5398 7.88043C43.6037 7.96532 43.6453 8.06559 43.6605 8.17179C43.6773 8.28862 43.6615 8.4079 43.6148 8.51597C43.5977 8.55559 43.583 8.59623 43.5707 8.63769C43.5408 8.73887 43.4757 8.82543 43.3877 8.88109C43.2996 8.93675 43.1946 8.95767 43.0924 8.93993C42.9902 8.92218 42.898 8.86699 42.8329 8.78472C42.7679 8.70246 42.7345 8.5988 42.7392 8.49324C42.7408 8.45794 42.7406 8.42259 42.7387 8.38731C42.7323 8.26803 42.7593 8.14936 42.8167 8.04521C42.8741 7.94113 42.9593 7.85585 43.0624 7.79936" fill="#003A99"/>
</svg>
