<svg width="24" height="25" viewBox="0 0 24 25" fill="none" xmlns="http://www.w3.org/2000/svg">
<path d="M18 8.71387H20C20.5523 8.71387 21 9.16159 21 9.71387V21.7139C21 22.2662 20.5523 22.7139 20 22.7139H4C3.44772 22.7139 3 22.2662 3 21.7139V9.71387C3 9.16159 3.44772 8.71387 4 8.71387H6V7.71387C6 4.40016 8.68629 1.71387 12 1.71387C15.3137 1.71387 18 4.40016 18 7.71387V8.71387ZM16 8.71387V7.71387C16 5.50473 14.2091 3.71387 12 3.71387C9.79086 3.71387 8 5.50473 8 7.71387V8.71387H16ZM7 11.7139V13.7139H9V11.7139H7ZM7 14.7139V16.7139H9V14.7139H7ZM7 17.7139V19.7139H9V17.7139H7Z" fill="#0E65F1"/>
</svg>
