<svg width="24" height="25" viewBox="0 0 24 25" fill="none" xmlns="http://www.w3.org/2000/svg">
<path d="M15.9498 3.10393L21.6066 8.76079C21.9972 9.15131 21.9972 9.78447 21.6066 10.175L13.8285 17.9532L11.7071 18.6603L10.2929 20.0745C9.90241 20.465 9.26925 20.465 8.87872 20.0745L4.63608 15.8319C4.24556 15.4414 4.24556 14.8082 4.63608 14.4177L6.0503 13.0035L6.7574 10.8821L14.5356 3.10393C14.9261 2.71341 15.5593 2.71341 15.9498 3.10393ZM16.6569 6.63947L10.2929 13.0035L11.7071 14.4177L18.0711 8.05368L16.6569 6.63947ZM4.28253 17.5997L7.11096 20.4281L5.69674 21.8423L1.4541 20.4281L4.28253 17.5997Z" fill="#0E65F1"/>
</svg>
