<svg width="206" height="57" viewBox="0 0 206 57" fill="none" xmlns="http://www.w3.org/2000/svg">
<g clip-path="url(#clip0_1618_24060)">
<path d="M51.5 0.713867H9.36364C4.19224 0.713867 0 4.89254 0 10.0472V47.3805C0 52.5352 4.19224 56.7139 9.36364 56.7139H51.5C56.6714 56.7139 60.8636 52.5352 60.8636 47.3805V10.0472C60.8636 4.89254 56.6714 0.713867 51.5 0.713867Z" fill="#6A994E"/>
<path d="M11.8867 40.3806V17.5139H20.5715C21.8387 17.5139 22.9967 17.699 24.0454 18.0693C25.1159 18.4395 26.0228 18.9621 26.7655 19.6372C27.5083 20.2906 28.0874 21.0964 28.5025 22.0546C28.9175 22.991 29.1252 24.0255 29.1252 25.1579V25.4193C29.1252 26.5736 28.9175 27.6296 28.5025 28.5879C28.0874 29.5462 27.4975 30.3629 26.7328 31.0379C25.99 31.713 25.0941 32.2356 24.0454 32.6059C23.0185 32.9762 21.8606 33.1613 20.5715 33.1613H16.9993V40.3806H11.8867ZM16.8354 29.1433H20.1127C20.7244 29.1433 21.2707 29.0562 21.7513 28.8819C22.2538 28.6859 22.6689 28.4356 22.9967 28.1306C23.3244 27.8039 23.5756 27.4119 23.7504 26.9546C23.9253 26.4973 24.0126 26.0182 24.0126 25.5173V25.2886C24.0126 24.7659 23.9253 24.2976 23.7504 23.8839C23.5976 23.4701 23.3572 23.1217 23.0294 22.8386C22.7017 22.5337 22.3084 22.305 21.8496 22.1526C21.3908 21.9784 20.8555 21.8913 20.2438 21.8913H16.8354V29.1433ZM32.4017 40.3806V17.5139H41.0865C42.3537 17.5139 43.5117 17.699 44.5604 18.0693C45.6309 18.4395 46.5376 18.9621 47.2806 19.6372C48.0233 20.2906 48.6022 21.0964 49.0175 22.0546C49.4326 22.991 49.6402 24.0255 49.6402 25.1579V25.4193C49.6402 26.5736 49.4326 27.6296 49.0175 28.5879C48.6022 29.5462 48.0123 30.3629 47.2478 31.0379C46.5048 31.713 45.6092 32.2356 44.5604 32.6059C43.5335 32.9762 42.3754 33.1613 41.0865 33.1613H37.5143V40.3806H32.4017ZM37.3504 29.1433H40.6277C41.2394 29.1433 41.7855 29.0562 42.2663 28.8819C42.7687 28.6859 43.184 28.4356 43.5117 28.1306C43.8394 27.8039 44.0906 27.4119 44.2655 26.9546C44.4401 26.4973 44.5277 26.0182 44.5277 25.5173V25.2886C44.5277 24.7659 44.4401 24.2976 44.2655 23.8839C44.1124 23.4701 43.8722 23.1217 43.5445 22.8386C43.2167 22.5337 42.8235 22.305 42.3647 22.1526C41.9058 21.9784 41.3705 21.8913 40.7588 21.8913H37.3504V29.1433Z" fill="white"/>
<path d="M68.5605 39.2138V16.3472H73.6403L79.8999 31.5045H80.1621L86.3889 16.3472H91.4687V39.2138H88.0603V20.6265H87.8637L81.4402 36.0125H78.589L72.1655 20.6265H71.9689V39.2138H68.5605ZM101.852 39.5078C100.977 39.5078 100.169 39.3881 99.4264 39.1485C98.7054 38.8872 98.0827 38.5388 97.5583 38.1032C97.034 37.6458 96.6187 37.1122 96.313 36.5025C96.0288 35.8709 95.8869 35.1741 95.8869 34.4118V34.2485C95.8869 32.4192 96.7498 31.0472 98.476 30.1325C100.202 29.1961 102.791 28.7278 106.243 28.7278H107.718V27.7805C107.718 26.8441 107.379 26.1145 106.702 25.5918C106.024 25.0692 105.074 24.8078 103.851 24.8078H103.785C102.868 24.8078 101.895 24.9602 100.868 25.2652C99.8632 25.5701 98.9565 26.0055 98.1482 26.5718L96.739 24.1218C97.8095 23.4249 98.9455 22.8805 100.147 22.4885C101.371 22.0965 102.638 21.9005 103.949 21.9005H104.08C105.02 21.9005 105.904 22.0312 106.735 22.2925C107.565 22.5321 108.275 22.8914 108.865 23.3705C109.477 23.8496 109.957 24.4595 110.307 25.1998C110.678 25.9185 110.864 26.7569 110.864 27.7152V36.0778C110.864 36.6005 110.919 37.1449 111.028 37.7112C111.137 38.2555 111.279 38.7565 111.454 39.2138H108.242C108.133 38.9742 108.046 38.6695 107.98 38.2992C107.915 37.9072 107.86 37.5261 107.816 37.1558C106.986 37.9181 106.068 38.5061 105.063 38.9198C104.058 39.3118 102.988 39.5078 101.852 39.5078ZM102.278 36.6658C103.37 36.6658 104.386 36.4481 105.325 36.0125C106.265 35.5769 107.062 35.0108 107.718 34.3138V31.1778H106.636C104.036 31.1778 102.125 31.4282 100.901 31.9292C99.6993 32.4082 99.0986 33.1595 99.0986 34.1832V34.2812C99.0986 34.6295 99.175 34.9562 99.3281 35.2612C99.4809 35.5442 99.6993 35.7948 99.9835 36.0125C100.267 36.2085 100.595 36.3718 100.967 36.5025C101.36 36.6115 101.797 36.6658 102.278 36.6658ZM116.208 39.2138V22.2272H118.764C118.895 22.5538 119.004 22.9567 119.092 23.4358C119.179 23.9149 119.245 24.3395 119.288 24.7098C120.053 23.8169 120.971 23.1309 122.041 22.6518C123.112 22.1727 124.248 21.9332 125.45 21.9332H125.548C127.624 21.9332 129.175 22.4885 130.202 23.5992C131.229 24.7098 131.742 26.2995 131.742 28.3685V39.2138H128.497V28.9892C128.497 27.6825 128.202 26.6808 127.613 25.9838C127.023 25.2652 126.05 24.9058 124.696 24.9058H124.532C123.789 24.9058 123.101 25.0255 122.467 25.2652C121.834 25.4829 121.298 25.8095 120.861 26.2452C120.425 26.6808 120.075 27.2035 119.813 27.8132C119.572 28.4012 119.452 29.0762 119.452 29.8385V39.2138H116.208ZM141.537 39.5078C140.663 39.5078 139.855 39.3881 139.112 39.1485C138.391 38.8872 137.768 38.5388 137.244 38.1032C136.72 37.6458 136.305 37.1122 135.999 36.5025C135.715 35.8709 135.573 35.1741 135.573 34.4118V34.2485C135.573 32.4192 136.436 31.0472 138.162 30.1325C139.888 29.1961 142.477 28.7278 145.929 28.7278H147.404V27.7805C147.404 26.8441 147.065 26.1145 146.388 25.5918C145.71 25.0692 144.76 24.8078 143.536 24.8078H143.471C142.553 24.8078 141.581 24.9602 140.554 25.2652C139.549 25.5701 138.642 26.0055 137.834 26.5718L136.425 24.1218C137.495 23.4249 138.631 22.8805 139.833 22.4885C141.057 22.0965 142.324 21.9005 143.635 21.9005H143.766C144.705 21.9005 145.59 22.0312 146.42 22.2925C147.251 22.5321 147.961 22.8914 148.551 23.3705C149.162 23.8496 149.643 24.4595 149.993 25.1998C150.364 25.9185 150.55 26.7569 150.55 27.7152V36.0778C150.55 36.6005 150.604 37.1449 150.714 37.7112C150.823 38.2555 150.965 38.7565 151.14 39.2138H147.928C147.819 38.9742 147.731 38.6695 147.666 38.2992C147.6 37.9072 147.546 37.5261 147.502 37.1558C146.672 37.9181 145.754 38.5061 144.749 38.9198C143.744 39.3118 142.673 39.5078 141.537 39.5078ZM141.963 36.6658C143.056 36.6658 144.072 36.4481 145.011 36.0125C145.951 35.5769 146.748 35.0108 147.404 34.3138V31.1778H146.322C143.722 31.1778 141.81 31.4282 140.587 31.9292C139.385 32.4082 138.784 33.1595 138.784 34.1832V34.2812C138.784 34.6295 138.861 34.9562 139.014 35.2612C139.167 35.5442 139.385 35.7948 139.669 36.0125C139.953 36.2085 140.281 36.3718 140.652 36.5025C141.046 36.6115 141.483 36.6658 141.963 36.6658ZM154.714 28.2705V27.9765C154.714 27.1055 154.899 26.2995 155.271 25.5592C155.642 24.8188 156.156 24.1872 156.811 23.6645C157.467 23.1201 158.253 22.7063 159.171 22.4232C160.088 22.1183 161.072 21.9658 162.12 21.9658H162.448C163.519 21.9658 164.502 22.1183 165.398 22.4232C166.315 22.7063 167.102 23.1201 167.757 23.6645C168.413 24.1872 168.926 24.8188 169.298 25.5592C169.669 26.2995 169.855 27.1162 169.855 28.0092V28.2705C169.855 29.1415 169.669 29.9475 169.298 30.6878C168.926 31.4282 168.413 32.0598 167.757 32.5825C167.102 33.1052 166.315 33.5189 165.398 33.8238C164.502 34.1069 163.519 34.2485 162.448 34.2485H162.284C162.044 34.2485 161.803 34.2375 161.563 34.2158C161.323 34.1941 161.093 34.1615 160.875 34.1178V36.1105C161.159 36.0669 161.443 36.0452 161.727 36.0452C162.011 36.0452 162.317 36.0452 162.645 36.0452H162.907C164.021 36.0452 165.048 36.1541 165.988 36.3718C166.927 36.5895 167.735 36.9162 168.413 37.3518C169.112 37.7655 169.658 38.2665 170.051 38.8545C170.445 39.4425 170.641 40.1068 170.641 40.8472V41.1738C170.641 41.8925 170.445 42.5458 170.051 43.1338C169.658 43.7435 169.112 44.2555 168.413 44.6692C167.713 45.1048 166.883 45.4315 165.922 45.6492C164.982 45.8669 163.956 45.9758 162.841 45.9758H162.317C161.203 45.9758 160.165 45.8669 159.204 45.6492C158.242 45.4315 157.412 45.1048 156.713 44.6692C156.035 44.2555 155.5 43.7435 155.107 43.1338C154.714 42.5458 154.517 41.8925 154.517 41.1738V40.8145C154.517 39.8562 154.834 39.0178 155.467 38.2992C156.123 37.5805 156.975 37.0142 158.024 36.6005V33.3338C156.997 32.8329 156.188 32.1469 155.599 31.2758C155.009 30.3829 154.714 29.3812 154.714 28.2705ZM157.991 28.0418V28.3358C157.991 28.8368 158.1 29.2941 158.319 29.7078C158.559 30.0998 158.865 30.4482 159.236 30.7532C159.608 31.0581 160.045 31.2868 160.547 31.4392C161.05 31.5915 161.596 31.6678 162.186 31.6678H162.448C163.038 31.6678 163.584 31.5915 164.087 31.4392C164.589 31.2649 165.026 31.0255 165.398 30.7205C165.791 30.4155 166.097 30.0672 166.315 29.6752C166.534 29.2615 166.643 28.8149 166.643 28.3358V28.0418C166.643 27.5409 166.534 27.0945 166.315 26.7025C166.097 26.2888 165.802 25.9295 165.43 25.6245C165.059 25.3195 164.611 25.0909 164.087 24.9385C163.562 24.7642 163.005 24.6772 162.415 24.6772H162.219C161.629 24.6772 161.072 24.7642 160.547 24.9385C160.045 25.0909 159.608 25.3195 159.236 25.6245C158.865 25.9295 158.559 26.2778 158.319 26.6698C158.1 27.0618 157.991 27.5192 157.991 28.0418ZM157.794 40.8145V41.0432C157.794 41.7618 158.209 42.3281 159.04 42.7418C159.892 43.1555 160.995 43.3625 162.35 43.3625H162.809C164.163 43.3625 165.267 43.1448 166.119 42.7092C166.971 42.2955 167.397 41.7401 167.397 41.0432V40.8145C167.397 40.0958 166.971 39.5295 166.119 39.1158C165.267 38.7021 164.163 38.4952 162.809 38.4952H162.35C160.995 38.4952 159.892 38.7021 159.04 39.1158C158.209 39.5295 157.794 40.0958 157.794 40.8145ZM170.674 20.3325L168.38 24.9058L166.217 23.2725C166.392 22.7063 166.588 22.1836 166.807 21.7045C167.047 21.2036 167.32 20.7463 167.626 20.3325H170.674ZM181.898 39.4752C180.631 39.4752 179.473 39.2682 178.424 38.8545C177.375 38.4408 176.468 37.8635 175.704 37.1232C174.961 36.3609 174.371 35.4681 173.934 34.4445C173.519 33.4209 173.311 32.2995 173.311 31.0798V30.6552C173.311 29.4138 173.519 28.2595 173.934 27.1925C174.371 26.1255 174.972 25.2108 175.736 24.4485C176.501 23.6645 177.408 23.0656 178.457 22.6518C179.505 22.2163 180.652 21.9985 181.898 21.9985H181.996C183.154 21.9985 184.214 22.1945 185.175 22.5865C186.158 22.9567 187 23.4903 187.699 24.1872C188.42 24.8841 188.977 25.7225 189.37 26.7025C189.763 27.6608 189.96 28.7169 189.96 29.8712V31.8965H176.621C176.709 32.5935 176.895 33.2249 177.178 33.7912C177.484 34.3575 177.878 34.8475 178.358 35.2612C178.839 35.6532 179.396 35.9689 180.03 36.2085C180.685 36.4481 181.384 36.5678 182.127 36.5678H182.193C183.329 36.5678 184.345 36.3392 185.241 35.8818C186.158 35.4245 186.857 34.8582 187.338 34.1832L189.435 36.0452C189.042 36.5678 188.573 37.0469 188.026 37.4825C187.48 37.9181 186.879 38.2775 186.224 38.5605C185.568 38.8435 184.891 39.0615 184.192 39.2138C183.493 39.3881 182.772 39.4752 182.029 39.4752H181.898ZM176.72 29.3812H186.814C186.77 28.6842 186.617 28.0635 186.355 27.5192C186.093 26.9529 185.743 26.4738 185.306 26.0818C184.869 25.6681 184.356 25.3522 183.766 25.1345C183.176 24.8949 182.531 24.7752 181.832 24.7752C181.155 24.7752 180.521 24.8841 179.931 25.1018C179.364 25.3195 178.861 25.6355 178.424 26.0492C177.987 26.4412 177.616 26.9202 177.31 27.4865C177.026 28.0528 176.829 28.6842 176.72 29.3812ZM194.331 39.2138V22.2272H196.92C197.029 22.5321 197.128 22.9023 197.215 23.3378C197.302 23.7734 197.368 24.1872 197.412 24.5792C198.067 23.8605 198.865 23.2943 199.804 22.8805C200.743 22.4449 201.792 22.2272 202.95 22.2272H203.245V25.4612C203.114 25.3958 202.972 25.3522 202.819 25.3305C202.688 25.3088 202.535 25.2978 202.36 25.2978C201.618 25.2978 200.94 25.4068 200.328 25.6245C199.739 25.8422 199.236 26.1689 198.821 26.6045C198.428 27.0182 198.122 27.5301 197.903 28.1398C197.685 28.7278 197.576 29.3921 197.576 30.1325V39.2138H194.331Z" fill="#4B782F"/>
</g>
<defs>
<clipPath id="clip0_1618_24060">
<rect width="206" height="56" fill="white" transform="translate(0 0.713867)"/>
</clipPath>
</defs>
</svg>
