<svg width="568" height="194" viewBox="0 0 568 194" fill="none" xmlns="http://www.w3.org/2000/svg">
<path d="M2 195.906C30.3877 188.213 79.1228 151.332 116.5 158C153.877 164.668 186.658 141.537 203.691 128.201C220.724 114.865 228.294 54.0949 256.681 58.1982C285.069 62.3016 299.263 103.417 322.919 108.546C346.576 113.675 351.307 147.692 373.544 172.825C395.781 197.958 416.126 201.036 444.04 195.906C471.955 190.777 479.525 138.918 492.773 136.866C506.02 134.814 517.848 159.545 529.203 165.187C540.559 170.829 543.87 195.906 568 195.906" stroke="#ECE9F1" stroke-opacity="0.5" stroke-width="4" stroke-linecap="round" stroke-linejoin="round"/>
<line x1="203" y1="0.859985" x2="568" y2="0.859985" stroke="#ECE9F1" stroke-opacity="0.5"/>
<line x1="203" y1="65.3719" x2="568" y2="65.3719" stroke="#ECE9F1" stroke-opacity="0.5"/>
<line x1="203" y1="129.884" x2="568" y2="129.884" stroke="#ECE9F1" stroke-opacity="0.5"/>
<path d="M87 198C108.156 191.877 125.553 154.542 150.797 148.266C164.251 144.922 175.03 151.432 187.055 161.547C199.081 171.662 196.727 176.03 223.773 183.828C246.092 190.263 251.93 120.882 273.801 123.547C295.671 126.213 305.786 42.7951 328.877 49.7585C351.967 56.7219 356.581 38.7182 378.286 72.8389C399.991 106.96 420.044 27.4265 447.291 20.4631C474.538 13.4997 481.634 87.4081 494.565 84.6228C507.496 81.8374 519.138 134.502 530.221 142.162C541.305 149.822 544.448 121.996 568 121.996" stroke="#0E65F1" stroke-opacity="0.5" stroke-width="4" stroke-linecap="round" stroke-linejoin="round"/>
<path d="M251.411 135.505C232.256 141.167 219.054 174.852 203 180.375V194H568V111.803C550.128 111.803 547.743 136.908 539.332 129.997C530.922 123.086 522.087 75.5714 512.275 78.0844C502.463 80.5974 500.176 16.5815 479.5 22.864C458.824 29.1465 440.509 98.2372 424.038 67.4528C407.568 36.6685 404.067 52.9117 386.545 46.6292C369.023 40.3467 361.347 115.608 344.751 113.203C328.155 110.798 323.725 173.395 306.788 167.589C286.265 160.554 288.051 156.613 278.926 147.487C269.8 138.361 261.621 132.487 251.411 135.505Z" fill="url(#paint0_linear_1618_23932)" fill-opacity="0.5"/>
<line x1="421.5" y1="54" x2="421.5" y2="194" stroke="#0E65F1" stroke-opacity="0.5" stroke-dasharray="4.4 4.4"/>
<g filter="url(#filter0_dd_1618_23932)">
<rect x="411" y="39" width="20" height="19" rx="9.5" fill="#0E65F1" fill-opacity="0.5"/>
<rect x="413" y="41" width="16" height="15" rx="7.5" stroke="white" stroke-opacity="0.5" stroke-width="4"/>
</g>
<defs>
<filter id="filter0_dd_1618_23932" x="405.667" y="36.3333" width="30.6667" height="29.6667" filterUnits="userSpaceOnUse" color-interpolation-filters="sRGB">
<feFlood flood-opacity="0" result="BackgroundImageFix"/>
<feColorMatrix in="SourceAlpha" type="matrix" values="0 0 0 0 0 0 0 0 0 0 0 0 0 0 0 0 0 0 127 0" result="hardAlpha"/>
<feOffset dy="2.66667"/>
<feGaussianBlur stdDeviation="2.66667"/>
<feColorMatrix type="matrix" values="0 0 0 0 0.196487 0 0 0 0 0.196487 0 0 0 0 0.279476 0 0 0 0.06 0"/>
<feBlend mode="multiply" in2="BackgroundImageFix" result="effect1_dropShadow_1618_23932"/>
<feColorMatrix in="SourceAlpha" type="matrix" values="0 0 0 0 0 0 0 0 0 0 0 0 0 0 0 0 0 0 127 0" result="hardAlpha"/>
<feOffset dy="2.66667"/>
<feGaussianBlur stdDeviation="1.33333"/>
<feColorMatrix type="matrix" values="0 0 0 0 0.196487 0 0 0 0 0.196487 0 0 0 0 0.279476 0 0 0 0.06 0"/>
<feBlend mode="multiply" in2="effect1_dropShadow_1618_23932" result="effect2_dropShadow_1618_23932"/>
<feBlend mode="normal" in="SourceGraphic" in2="effect2_dropShadow_1618_23932" result="shape"/>
</filter>
<linearGradient id="paint0_linear_1618_23932" x1="385.5" y1="19.7805" x2="385.5" y2="266.876" gradientUnits="userSpaceOnUse">
<stop stop-color="#7459D9" stop-opacity="0.1"/>
<stop offset="0.998978" stop-color="white" stop-opacity="0"/>
</linearGradient>
</defs>
</svg>
