<svg xmlns="http://www.w3.org/2000/svg" width="170" height="59" viewBox="0 0 170 59" fill="none">
  <g clip-path="url(#clip0_1439_4049)">
    <path d="M32.5369 0.785411L17.954 28.9657C17.6096 29.5748 17.2652 30.1408 16.9208 30.6495C16.5805 31.1683 16.1982 31.6595 15.7776 32.1184H34.8305C35.2448 32.1257 35.6401 32.2893 35.9338 32.5751C36.2275 32.8609 36.3967 33.2467 36.4061 33.6517V38.1514H8.89653V35.2854C8.87525 34.5779 8.96925 33.8717 9.17499 33.1931C9.32727 32.7373 9.51089 32.2921 9.7246 31.8604L24.8131 1.48043C24.9355 1.2282 25.0828 0.988226 25.2528 0.763916H0.439941V57.7193H31.3717L45.9545 29.5318C46.299 28.9227 46.6434 28.3567 46.9878 27.848C47.3299 27.3305 47.712 26.8394 48.131 26.3791H38.6045H29.078C28.6664 26.3737 28.2729 26.2123 27.9804 25.929C27.688 25.6457 27.5193 25.2626 27.5098 24.8601V20.3533H55.012V23.2193C55.0328 23.9244 54.9388 24.6282 54.7336 25.3044C54.5813 25.7602 54.3977 26.2055 54.184 26.6371L39.0955 57.0171C38.9726 57.2691 38.8253 57.509 38.6558 57.7336H63.4613V0.785411H32.5369Z" fill="#00538E"/>
    <path d="M75.1864 55.491V52.4028H75.8019V55.4552C75.7682 55.684 75.7866 55.9172 75.8558 56.1383C75.925 56.3593 76.0433 56.5627 76.2022 56.7338C76.3612 56.905 76.5568 57.0397 76.7752 57.1283C76.9936 57.2169 77.2292 57.2572 77.4654 57.2464C78.462 57.2464 79.0996 56.6517 79.0996 55.491V52.4028H79.7151V55.448C79.7151 56.9957 78.8065 57.7981 77.4434 57.7981C77.1326 57.819 76.8209 57.7728 76.5304 57.6627C76.2399 57.5527 75.9776 57.3816 75.7623 57.1614C75.5469 56.9413 75.3837 56.6775 75.2842 56.3889C75.1847 56.1002 75.1513 55.7937 75.1864 55.491Z" fill="#4E4E4F"/>
    <path d="M81.0855 53.7928H81.6864V54.452C81.8173 54.2301 82.0067 54.0466 82.2348 53.9206C82.463 53.7946 82.7215 53.7307 82.9834 53.7355C83.2531 53.7272 83.5193 53.7977 83.7477 53.9382C83.9762 54.0786 84.1566 54.2824 84.2658 54.5237C84.4077 54.2804 84.6138 54.0789 84.8626 53.9402C85.1114 53.8016 85.3938 53.7309 85.6802 53.7355C85.8863 53.7344 86.0903 53.7758 86.279 53.8571C86.4676 53.9383 86.6366 54.0575 86.775 54.207C86.9133 54.3564 87.0178 54.5327 87.0817 54.7243C87.1456 54.9159 87.1674 55.1186 87.1458 55.319V57.748H86.5522V55.4551C86.5522 54.6956 86.1638 54.2729 85.5116 54.2729C85.3555 54.274 85.2013 54.3071 85.0591 54.3702C84.9169 54.4332 84.7899 54.5248 84.6862 54.639C84.5826 54.7532 84.5046 54.8874 84.4575 55.0329C84.4103 55.1785 84.3949 55.3321 84.4124 55.4838V57.748H83.8115V55.4122C83.8115 54.6956 83.4158 54.2442 82.7782 54.2442C82.6209 54.2495 82.4663 54.286 82.3239 54.3517C82.1815 54.4173 82.0543 54.5107 81.95 54.626C81.8457 54.7414 81.7666 54.8763 81.7175 55.0225C81.6684 55.1688 81.6503 55.3233 81.6644 55.4766V57.7193H81.0635L81.0855 53.7928Z" fill="#4E4E4F"/>
    <path d="M88.2227 57.3466L90.8896 54.2871H88.3179V53.7927H91.7029V54.1653L89.0359 57.2248H91.7029V57.7192H88.2227V57.3466Z" fill="#4E4E4F"/>
    <path d="M92.7078 56.2289V53.7927H93.3013V56.0856C93.282 56.2374 93.2968 56.3915 93.3446 56.5371C93.3923 56.6828 93.472 56.8166 93.578 56.9291C93.684 57.0416 93.8137 57.1302 93.9583 57.1887C94.1028 57.2472 94.2587 57.2742 94.415 57.2678C94.5784 57.2701 94.7406 57.2393 94.8914 57.1774C95.0421 57.1155 95.1781 57.0239 95.2909 56.9082C95.4037 56.7925 95.4909 56.6552 95.5469 56.505C95.603 56.3549 95.6267 56.195 95.6166 56.0354V53.7927H96.2027V57.7192H95.6166V57.0027C95.4873 57.2505 95.2899 57.4583 95.0466 57.6025C94.8033 57.7468 94.5237 57.822 94.2391 57.8195C94.0269 57.8302 93.8148 57.7955 93.6176 57.718C93.4204 57.6405 93.2428 57.522 93.0972 57.3707C92.9515 57.2193 92.8412 57.0388 92.774 56.8417C92.7067 56.6445 92.6842 56.4354 92.7078 56.2289Z" fill="#4E4E4F"/>
    <path d="M97.5003 58.3998L97.7714 57.9413C98.216 58.2707 98.7595 58.447 99.3173 58.4428C99.5154 58.4659 99.7163 58.4446 99.9048 58.3808C100.093 58.3169 100.265 58.212 100.406 58.0741C100.547 57.9361 100.654 57.7687 100.719 57.5843C100.785 57.4 100.806 57.2035 100.783 57.0098V56.5512C100.608 56.8032 100.373 57.0098 100.099 57.1533C99.8246 57.2969 99.5186 57.373 99.2074 57.3752C98.9591 57.38 98.7123 57.336 98.4817 57.2457C98.2511 57.1554 98.0414 57.0207 97.865 56.8496C97.6887 56.6785 97.5493 56.4745 97.4552 56.2497C97.3611 56.0249 97.3141 55.7838 97.3171 55.5409C97.3132 55.2968 97.3593 55.0543 97.4529 54.8279C97.5464 54.6015 97.6853 54.3957 97.8616 54.2227C98.0378 54.0497 98.2477 53.913 98.4789 53.8207C98.71 53.7284 98.9578 53.6823 99.2074 53.6852C99.5154 53.6823 99.8193 53.7532 100.093 53.8919C100.366 54.0306 100.6 54.2327 100.775 54.4805V53.764H101.369V57.0313C101.384 57.2848 101.346 57.5386 101.258 57.7775C101.169 58.0164 101.033 58.2354 100.856 58.4213C100.65 58.6031 100.409 58.743 100.148 58.8328C99.8861 58.9226 99.6088 58.9605 99.332 58.9444C98.6783 58.954 98.0379 58.7636 97.5003 58.3998ZM100.79 55.5338C100.784 55.3521 100.742 55.1734 100.665 55.0081C100.588 54.8427 100.478 54.694 100.342 54.5706C100.205 54.4472 100.045 54.3516 99.8704 54.2894C99.6958 54.2272 99.5103 54.1996 99.3247 54.2082C99.1432 54.1994 98.9618 54.2271 98.7917 54.2896C98.6216 54.3522 98.4665 54.4483 98.336 54.5719C98.2054 54.6955 98.1023 54.844 98.0329 55.0083C97.9635 55.1725 97.9293 55.3489 97.9326 55.5266C97.9315 55.7043 97.967 55.8805 98.037 56.0445C98.107 56.2085 98.2099 56.3572 98.3398 56.4815C98.4697 56.6058 98.6238 56.7033 98.793 56.7682C98.9622 56.8332 99.143 56.8641 99.3247 56.8593C99.6925 56.8732 100.051 56.7462 100.325 56.5054C100.599 56.2645 100.766 55.9288 100.79 55.5696V55.5338Z" fill="#4E4E4F"/>
    <path d="M102.359 57.2177L102.659 56.7949C103.055 57.1055 103.544 57.2816 104.051 57.2965C104.535 57.2965 104.879 57.0529 104.879 56.6731C104.879 56.2791 104.41 56.1286 103.883 55.9566C103.355 55.7847 102.557 55.5697 102.557 54.846C102.564 54.6828 102.607 54.5228 102.681 54.3763C102.755 54.2298 102.859 54.1 102.987 53.9949C103.116 53.8899 103.264 53.812 103.425 53.7661C103.585 53.7202 103.754 53.7073 103.919 53.7283C104.44 53.7322 104.948 53.8814 105.385 54.1582L105.114 54.5953C104.763 54.362 104.351 54.2304 103.927 54.2155C103.451 54.2155 103.15 54.4591 103.15 54.7887C103.15 55.1613 103.648 55.3046 104.183 55.4622C104.718 55.6199 105.465 55.8778 105.465 56.5872C105.469 56.7656 105.432 56.9426 105.358 57.1057C105.284 57.2688 105.174 57.4142 105.037 57.5315C104.899 57.6489 104.737 57.7355 104.562 57.7853C104.387 57.835 104.202 57.8467 104.022 57.8196C103.415 57.8016 102.831 57.5902 102.359 57.2177Z" fill="#4E4E4F"/>
    <path d="M106.14 57.2177L106.448 56.7949C106.841 57.1055 107.327 57.2816 107.833 57.2965C108.316 57.2965 108.668 57.0529 108.668 56.6731C108.668 56.2791 108.192 56.1286 107.664 55.9566C107.137 55.7847 106.338 55.5697 106.338 54.846C106.346 54.6828 106.388 54.5228 106.462 54.3763C106.536 54.2298 106.641 54.1 106.769 53.9949C106.897 53.8899 107.046 53.812 107.206 53.7661C107.367 53.7202 107.535 53.7073 107.701 53.7283C108.221 53.7322 108.729 53.8814 109.166 54.1582L108.895 54.5953C108.544 54.362 108.132 54.2304 107.708 54.2155C107.239 54.2155 106.931 54.4591 106.931 54.7887C106.931 55.1613 107.43 55.3046 107.965 55.4622C108.499 55.6199 109.254 55.8778 109.254 56.5872C109.254 57.3037 108.624 57.7622 107.789 57.7622C107.194 57.7556 106.617 57.565 106.14 57.2177Z" fill="#4E4E4F"/>
    <path d="M110.09 55.7632C110.075 55.5051 110.113 55.2466 110.203 55.0031C110.292 54.7596 110.43 54.5361 110.609 54.3457C110.788 54.1554 111.004 54.002 111.245 53.8947C111.485 53.7875 111.745 53.7284 112.01 53.7212C112.276 53.7247 112.538 53.7825 112.781 53.891C113.023 53.9994 113.239 54.1562 113.416 54.3511C113.592 54.546 113.725 54.7749 113.806 55.023C113.887 55.2711 113.914 55.533 113.885 55.7919C113.889 55.8563 113.889 55.9209 113.885 55.9854H110.698C110.71 56.3433 110.864 56.6826 111.128 56.9304C111.393 57.1782 111.746 57.3148 112.112 57.3109C112.352 57.3136 112.589 57.2657 112.808 57.1705C113.026 57.0753 113.222 56.935 113.38 56.7592L113.753 57.0816C113.551 57.3162 113.297 57.5026 113.01 57.6267C112.723 57.7509 112.411 57.8095 112.098 57.7981C111.827 57.8003 111.559 57.7487 111.309 57.6463C111.06 57.5438 110.835 57.3929 110.647 57.2025C110.459 57.0121 110.313 56.7863 110.217 56.5389C110.121 56.2914 110.078 56.0275 110.09 55.7632ZM113.277 55.5411C113.279 55.2033 113.146 54.8779 112.907 54.6344C112.668 54.3908 112.34 54.2483 111.995 54.2371C111.645 54.2587 111.316 54.4087 111.074 54.6571C110.833 54.9055 110.696 55.234 110.691 55.577L113.277 55.5411Z" fill="#4E4E4F"/>
    <path d="M114.926 53.7927H115.527V54.8173C115.649 54.4918 115.872 54.2118 116.165 54.0165C116.458 53.8212 116.806 53.7204 117.161 53.7282V54.3516H117.117C116.887 54.3536 116.66 54.4034 116.451 54.4979C116.243 54.5924 116.057 54.7292 115.906 54.8994C115.756 55.0695 115.644 55.2691 115.579 55.4847C115.514 55.7004 115.496 55.9272 115.527 56.15V57.7192H114.926V53.7927Z" fill="#4E4E4F"/>
    <path d="M117.689 53.7927H118.348L119.697 57.0457L121.052 53.7927H121.697L119.953 57.7479H119.425L117.689 53.7927Z" fill="#4E4E4F"/>
    <path d="M122.635 52.2881H123.317V52.9329H122.635V52.2881ZM122.672 53.7928H123.265V57.7192H122.672V53.7928Z" fill="#4E4E4F"/>
    <path d="M124.409 55.7703C124.407 55.3538 124.536 54.9469 124.778 54.604C125.02 54.2612 125.363 53.9989 125.762 53.8523C126.161 53.7057 126.596 53.6819 127.008 53.7839C127.421 53.886 127.793 54.1091 128.072 54.4233L127.676 54.8317C127.532 54.6556 127.35 54.5116 127.145 54.4091C126.939 54.3066 126.713 54.2479 126.482 54.237C126.283 54.2367 126.085 54.2762 125.902 54.3531C125.719 54.43 125.554 54.5427 125.416 54.6842C125.279 54.8257 125.173 54.9931 125.104 55.1762C125.036 55.3593 125.006 55.5541 125.017 55.7488C125.004 55.9447 125.032 56.1411 125.1 56.3259C125.168 56.5106 125.273 56.6798 125.411 56.8229C125.548 56.966 125.714 57.0799 125.899 57.1577C126.083 57.2355 126.281 57.2754 126.482 57.275C126.717 57.2685 126.947 57.2134 127.158 57.1133C127.369 57.0133 127.555 56.8705 127.706 56.6946L128.087 57.0385C127.815 57.3561 127.45 57.5847 127.042 57.6936C126.633 57.8024 126.2 57.7863 125.801 57.6474C125.402 57.5085 125.056 57.2535 124.81 56.9167C124.564 56.5798 124.429 56.1772 124.423 55.7632L124.409 55.7703Z" fill="#4E4E4F"/>
    <path d="M128.718 55.7632C128.703 55.5045 128.742 55.2454 128.831 55.0015C128.921 54.7575 129.06 54.5337 129.239 54.3432C129.419 54.1527 129.636 53.9995 129.878 53.8927C130.119 53.7858 130.38 53.7275 130.645 53.7212C130.911 53.7257 131.172 53.7842 131.414 53.8931C131.655 54.002 131.87 54.1589 132.046 54.3537C132.222 54.5485 132.354 54.777 132.434 55.0247C132.515 55.2723 132.542 55.5336 132.513 55.7919C132.517 55.8563 132.517 55.9209 132.513 55.9854H129.333C129.343 56.3427 129.496 56.6819 129.759 56.93C130.022 57.178 130.375 57.3148 130.74 57.3109C130.98 57.315 131.217 57.2678 131.436 57.1725C131.655 57.0772 131.85 56.9361 132.008 56.7592L132.345 57.1031C132.142 57.3377 131.888 57.5241 131.601 57.6482C131.314 57.7724 131.002 57.831 130.689 57.8196C130.419 57.8171 130.153 57.7612 129.907 57.6554C129.66 57.5495 129.438 57.3958 129.254 57.2036C129.07 57.0114 128.927 56.7846 128.835 56.5371C128.743 56.2895 128.703 56.0263 128.718 55.7632ZM131.905 55.5411C131.909 55.2039 131.778 54.8786 131.54 54.6348C131.301 54.3911 130.975 54.2483 130.63 54.2371C130.279 54.2554 129.948 54.4044 129.706 54.6535C129.463 54.9026 129.327 55.233 129.326 55.577L131.905 55.5411Z" fill="#4E4E4F"/>
    <path d="M135.547 57.2177L135.848 56.7949C136.244 57.1055 136.732 57.2816 137.24 57.2965C137.723 57.2965 138.068 57.0529 138.068 56.6731C138.068 56.2791 137.599 56.1286 137.071 55.9566C136.544 55.7847 135.745 55.5697 135.745 54.846C135.753 54.6828 135.795 54.5228 135.869 54.3763C135.943 54.2298 136.048 54.1 136.176 53.9949C136.304 53.8899 136.453 53.812 136.613 53.7661C136.774 53.7202 136.942 53.7073 137.108 53.7283C137.628 53.7322 138.137 53.8814 138.573 54.1582L138.302 54.5953C137.951 54.362 137.54 54.2304 137.115 54.2155C136.639 54.2155 136.339 54.4591 136.339 54.7887C136.339 55.1613 136.837 55.3046 137.372 55.4622C137.907 55.6199 138.661 55.8778 138.661 56.5872C138.661 57.3037 138.031 57.7622 137.196 57.7622C136.601 57.7566 136.024 57.5659 135.547 57.2177Z" fill="#4E4E4F"/>
    <path d="M139.673 56.2288V53.7927H140.274V56.0855C140.254 56.2369 140.267 56.3909 140.314 56.5366C140.361 56.6823 140.44 56.8161 140.545 56.9288C140.651 57.0415 140.78 57.1302 140.924 57.1888C141.069 57.2473 141.224 57.2743 141.38 57.2677C141.546 57.273 141.71 57.2445 141.864 57.184C142.017 57.1234 142.156 57.0322 142.271 56.9162C142.386 56.8001 142.475 56.6619 142.533 56.5102C142.59 56.3585 142.614 56.1967 142.604 56.0353V53.7927H143.197V57.7191H142.604V57.0026C142.474 57.2516 142.276 57.46 142.031 57.6044C141.786 57.7487 141.505 57.8232 141.219 57.8194C141.006 57.8323 140.792 57.7992 140.593 57.7227C140.394 57.6461 140.215 57.5279 140.067 57.3763C139.92 57.2248 139.808 57.0435 139.74 56.8453C139.672 56.647 139.649 56.4366 139.673 56.2288ZM140.406 52.4814H141.095V53.198H140.406V52.4814ZM141.761 52.4814H142.45V53.198H141.761V52.4814Z" fill="#4E4E4F"/>
    <path d="M144.282 55.763C144.267 55.5046 144.304 55.2457 144.393 55.0018C144.482 54.7579 144.62 54.534 144.799 54.3434C144.978 54.1528 145.195 53.9995 145.436 53.8925C145.677 53.7856 145.937 53.7273 146.202 53.721C146.51 53.7224 146.813 53.8 147.082 53.9465C147.351 54.0931 147.577 54.3039 147.741 54.5593V52.1948H148.334V57.7334H147.733V56.9238C147.575 57.1863 147.35 57.4046 147.081 57.5577C146.811 57.7107 146.506 57.7935 146.195 57.7979C145.931 57.7917 145.671 57.7335 145.431 57.6269C145.191 57.5203 144.975 57.3675 144.797 57.1776C144.618 56.9877 144.481 56.7646 144.392 56.5215C144.304 56.2785 144.267 56.0205 144.282 55.763ZM147.763 55.763C147.773 55.5689 147.742 55.3748 147.673 55.1926C147.604 55.0104 147.497 54.8439 147.36 54.7031C147.223 54.5623 147.058 54.4503 146.875 54.3739C146.693 54.2974 146.496 54.2581 146.297 54.2584C146.101 54.2576 145.906 54.297 145.726 54.374C145.545 54.451 145.384 54.5639 145.251 54.7055C145.117 54.8471 145.016 55.0143 144.953 55.1964C144.89 55.3785 144.866 55.5715 144.883 55.763C144.871 55.9542 144.899 56.1457 144.964 56.3263C145.029 56.5069 145.13 56.6729 145.262 56.8145C145.394 56.9561 145.554 57.0704 145.731 57.1507C145.909 57.2311 146.102 57.2757 146.297 57.282C146.694 57.2653 147.069 57.0952 147.338 56.8092C147.607 56.5231 147.749 56.1443 147.733 55.7559L147.763 55.763Z" fill="#4E4E4F"/>
    <path d="M149.5 55.1255H151.698V55.7417H149.5V55.1255Z" fill="#4E4E4F"/>
    <path d="M152.409 53.7926H153.047L154.102 56.9453L155.179 53.7783H155.677L156.762 56.9453L157.817 53.7926H158.44L157.026 57.7478H156.528L155.45 54.6525L154.329 57.7478H153.802L152.409 53.7926Z" fill="#4E4E4F"/>
    <path d="M158.982 55.7632C158.966 55.502 159.003 55.2403 159.093 54.9937C159.182 54.7472 159.322 54.5209 159.503 54.3287C159.685 54.1365 159.904 53.9823 160.149 53.8754C160.393 53.7685 160.657 53.7111 160.924 53.7068C161.19 53.7113 161.451 53.7698 161.693 53.8787C161.934 53.9876 162.149 54.1445 162.325 54.3393C162.501 54.5341 162.633 54.7626 162.714 55.0103C162.794 55.2579 162.821 55.5192 162.792 55.7775C162.796 55.8419 162.796 55.9065 162.792 55.971H159.613C159.624 56.3289 159.779 56.6682 160.043 56.916C160.307 57.1638 160.66 57.3004 161.027 57.2965C161.265 57.3001 161.502 57.2525 161.719 57.1572C161.937 57.0619 162.131 56.9211 162.287 56.7448L162.66 57.0672C162.458 57.3017 162.204 57.4882 161.917 57.6123C161.63 57.7364 161.318 57.7951 161.005 57.7837C160.734 57.7878 160.466 57.738 160.216 57.6373C159.965 57.5367 159.739 57.3873 159.55 57.1982C159.361 57.0092 159.213 56.7845 159.115 56.5378C159.018 56.291 158.972 56.0275 158.982 55.7632ZM162.17 55.541C162.174 55.2086 162.047 54.8873 161.815 54.6444C161.583 54.4014 161.264 54.2554 160.924 54.237C160.573 54.2553 160.242 54.4043 160 54.6534C159.757 54.9025 159.621 55.2329 159.62 55.5769L162.17 55.541Z" fill="#4E4E4F"/>
    <path d="M163.489 57.2177L163.79 56.7949C164.186 57.1055 164.674 57.2816 165.182 57.2965C165.658 57.2965 166.01 57.0529 166.01 56.6731C166.01 56.279 165.533 56.1286 165.013 55.9566C164.383 55.7847 163.68 55.5697 163.68 54.846C163.688 54.6824 163.732 54.5223 163.807 54.3758C163.882 54.2293 163.987 54.0995 164.115 53.9946C164.244 53.8896 164.393 53.8118 164.554 53.766C164.715 53.7202 164.884 53.7073 165.05 53.7283C165.57 53.7334 166.078 53.8825 166.515 54.1582L166.244 54.5952C165.893 54.362 165.481 54.2304 165.057 54.2155C164.581 54.2155 164.281 54.4591 164.281 54.7887C164.281 55.1613 164.771 55.3046 165.314 55.4622C165.856 55.6199 166.596 55.8778 166.596 56.5871C166.596 57.3037 165.973 57.7622 165.13 57.7622C164.538 57.7566 163.963 57.5658 163.489 57.2177Z" fill="#4E4E4F"/>
    <path d="M167.813 56.6732V54.3087H167.256V53.7928H167.813V52.6106H168.413V53.7928H169.718V54.3087H168.443V56.6016C168.43 56.6906 168.44 56.7813 168.469 56.8664C168.499 56.9515 168.548 57.0287 168.614 57.0919C168.679 57.1552 168.758 57.2027 168.846 57.2307C168.933 57.2588 169.026 57.2666 169.117 57.2536C169.318 57.2564 169.517 57.2096 169.696 57.1174V57.619C169.47 57.7353 169.218 57.7921 168.963 57.7838C168.808 57.8033 168.651 57.7882 168.504 57.7395C168.356 57.6908 168.222 57.6098 168.111 57.5028C168 57.3957 167.916 57.2654 167.864 57.1217C167.812 56.9779 167.795 56.8246 167.813 56.6732Z" fill="#4E4E4F"/>
    <path d="M74.9224 15.6959L77.2527 12.966C78.7041 14.2936 80.6009 15.0579 82.5875 15.1156C84.1997 15.1156 85.1743 14.4922 85.1743 13.4676V13.3959C85.1743 12.4215 84.5588 11.9199 81.5689 11.1676C77.9635 10.272 75.6405 9.29751 75.6405 5.82244V5.77228C75.6405 2.59814 78.2493 0.498769 81.8987 0.498769C84.3107 0.462371 86.6606 1.24766 88.5452 2.71995L86.5007 5.62181C85.1639 4.5993 83.5414 3.99721 81.8474 3.89503C80.3818 3.89503 79.5464 4.61153 79.5464 5.42119V5.47135C79.5464 6.62493 80.2792 6.99751 83.4083 7.77134C87.0723 8.69564 89.0802 9.97103 89.0802 13.0162V13.0663C89.0802 16.5414 86.3761 18.4903 82.4849 18.4903C79.6996 18.4932 77.0096 17.4993 74.9224 15.6959Z" fill="#4E4E4F"/>
    <path d="M92.6855 0.749512H96.62V18.2395H92.6855V0.749512Z" fill="#4E4E4F"/>
    <path d="M101.091 0.749512H114.589V4.17443H105.004V7.75698H113.439V11.1819H105.004V14.8289H114.714V18.2467H101.091V0.749512Z" fill="#4E4E4F"/>
    <path d="M118.217 0.749474H126.527C128.233 0.641868 129.914 1.19819 131.202 2.29713C131.605 2.68368 131.921 3.14731 132.131 3.65898C132.342 4.17065 132.442 4.71934 132.426 5.27065V5.32081C132.449 6.10509 132.239 6.87901 131.821 7.54909C131.404 8.21916 130.797 8.75672 130.074 9.09681C132.147 9.87064 133.423 11.0457 133.423 13.3959V13.446C133.423 16.6417 130.77 18.2395 126.732 18.2395H118.217V0.749474ZM125.684 7.82142C127.421 7.82142 128.52 7.26971 128.52 5.97283V5.92267C128.52 4.76909 127.597 4.12423 125.933 4.12423H122.086V7.82142H125.684ZM126.732 14.8647C128.469 14.8647 129.517 14.27 129.517 12.966V12.923C129.517 11.7479 128.623 11.0171 126.585 11.0171H122.086V14.8647H126.732Z" fill="#4E4E4F"/>
    <path d="M136.668 0.749512H150.167V4.17443H140.582V7.75698H149.016V11.1819H140.582V14.8289H150.291V18.2467H136.668V0.749512Z" fill="#4E4E4F"/>
    <path d="M153.794 0.749512H157.422L165.805 11.4972V0.749512H169.718V18.2395H166.369L157.678 7.11928V18.2395H153.794V0.749512Z" fill="#4E4E4F"/>
    <path d="M74.9224 34.3108V25.9133H78.2273V34.2248C78.2273 36.618 79.4511 37.8575 81.4663 37.8575C83.4815 37.8575 84.7127 36.661 84.7127 34.3323V25.9133H88.0176V34.1747C88.0176 38.6242 85.4601 40.8096 81.4224 40.8096C77.3846 40.8096 74.9224 38.6314 74.9224 34.3108Z" fill="#4E4E4F"/>
    <path d="M91.3813 25.9133H94.9721L98.9219 32.1255L102.872 25.9133H106.433V40.6233H103.15V31.0149L98.9219 37.2915H98.8413L94.6497 31.0794V40.6233H91.3813V25.9133Z" fill="#4E4E4F"/>
    <path d="M109.562 38.1514L117.821 28.7508H109.818V25.8848H122.086V28.3711L113.812 37.7573H122.086V40.6234H109.562V38.1514Z" fill="#4E4E4F"/>
    <path d="M124.966 34.3108V25.9133H128.271V34.2248C128.271 36.618 129.495 37.8575 131.517 37.8575C133.54 37.8575 134.756 36.6609 134.756 34.3323V25.9133H138.061V34.1747C138.061 38.6242 135.504 40.8095 131.466 40.8095C127.428 40.8095 124.966 38.6313 124.966 34.3108ZM127.611 22.1301H130.74V24.7955H127.611V22.1301ZM132.287 22.1301H135.423V24.7955H132.287V22.1301Z" fill="#4E4E4F"/>
    <path d="M140.765 33.3005V33.2575C140.757 32.2494 140.956 31.25 141.35 30.3184C141.744 29.3868 142.325 28.5419 143.058 27.8337C143.792 27.1256 144.664 26.5686 145.622 26.1956C146.58 25.8227 147.604 25.6414 148.635 25.6625C150.798 25.5528 152.918 26.2755 154.542 27.6759L152.46 30.1335C151.404 29.149 149.992 28.6132 148.533 28.6432C147.34 28.6935 146.217 29.2034 145.408 30.0614C144.599 30.9194 144.171 32.0556 144.216 33.2217C144.18 33.8253 144.271 34.4298 144.484 34.9975C144.697 35.5652 145.028 36.0839 145.454 36.5215C145.881 36.959 146.396 37.306 146.966 37.5407C147.536 37.7755 148.149 37.8931 148.767 37.8862C149.87 37.9289 150.959 37.6332 151.882 37.0407V34.9413H148.555V32.1469H155.062V38.531C153.279 40.0379 150.999 40.8648 148.643 40.8597C143.982 40.8597 140.765 37.6425 140.765 33.3005Z" fill="#4E4E4F"/>
    <path d="M158.25 25.9133H169.587V28.7794H161.526V31.7529H168.612V34.6189H161.526V37.7572H169.718V40.6233H158.25V25.9133Z" fill="#4E4E4F"/>
    <path d="M169.689 46.0544H74.9224V46.9716H169.689V46.0544Z" fill="#4E4E4F"/>
  </g>
  <defs>
    <clipPath id="clip0_1439_4049">
      <rect width="169.249" height="58.4457" fill="white" transform="translate(0.439941 0.498779)"/>
    </clipPath>
  </defs>
</svg>