<svg width="31" height="30" viewBox="0 0 31 30" fill="none" xmlns="http://www.w3.org/2000/svg">
<path d="M11.9167 22.5H19.4167" stroke="#0E65F1" stroke-width="2.5" stroke-linecap="round" stroke-linejoin="round"/>
<path d="M13.1667 27.5H18.1667" stroke="#0E65F1" stroke-width="2.5" stroke-linecap="round" stroke-linejoin="round"/>
<path d="M19.5292 17.5C19.7542 16.275 20.3417 15.325 21.2917 14.375C21.8953 13.8194 22.3745 13.1423 22.6976 12.3882C23.0208 11.6342 23.1807 10.8203 23.1667 10C23.1667 8.01088 22.3766 6.10322 20.97 4.6967C19.5635 3.29018 17.6559 2.5 15.6667 2.5C13.6776 2.5 11.77 3.29018 10.3634 4.6967C8.95692 6.10322 8.16675 8.01088 8.16675 10C8.16675 11.25 8.45425 12.7875 10.0417 14.375C10.9468 15.2026 11.5643 16.2973 11.8042 17.5" stroke="#0E65F1" stroke-width="2.5" stroke-linecap="round" stroke-linejoin="round"/>
</svg>
