<svg width="31" height="30" viewBox="0 0 31 30" fill="none" xmlns="http://www.w3.org/2000/svg">
<g clip-path="url(#clip0_1779_28094)">
<path d="M15.3335 18.75C17.4046 18.75 19.0835 17.0711 19.0835 15C19.0835 12.9289 17.4046 11.25 15.3335 11.25C13.2624 11.25 11.5835 12.9289 11.5835 15C11.5835 17.0711 13.2624 18.75 15.3335 18.75Z" stroke="#0E65F1" stroke-width="2.5" stroke-linecap="round" stroke-linejoin="round"/>
<path d="M24.5835 18.75C24.4171 19.127 24.3675 19.5452 24.441 19.9507C24.5145 20.3562 24.7078 20.7304 24.996 21.025L25.071 21.1C25.3034 21.3322 25.4878 21.6079 25.6136 21.9114C25.7395 22.2149 25.8042 22.5402 25.8042 22.8688C25.8042 23.1973 25.7395 23.5226 25.6136 23.8261C25.4878 24.1296 25.3034 24.4053 25.071 24.6375C24.8388 24.8699 24.5631 25.0543 24.2596 25.1801C23.9561 25.306 23.6308 25.3707 23.3022 25.3707C22.9737 25.3707 22.6484 25.306 22.3449 25.1801C22.0414 25.0543 21.7657 24.8699 21.5335 24.6375L21.4585 24.5625C21.1639 24.2743 20.7897 24.081 20.3842 24.0075C19.9787 23.934 19.5605 23.9836 19.1835 24.15C18.8138 24.3085 18.4985 24.5716 18.2764 24.9069C18.0543 25.2423 17.9351 25.6353 17.9335 26.0375V26.25C17.9335 26.913 17.6701 27.5489 17.2013 28.0178C16.7324 28.4866 16.0965 28.75 15.4335 28.75C14.7705 28.75 14.1346 28.4866 13.6657 28.0178C13.1969 27.5489 12.9335 26.913 12.9335 26.25V26.1375C12.9238 25.7238 12.7899 25.3225 12.5491 24.9859C12.3084 24.6493 11.9719 24.3929 11.5835 24.25C11.2065 24.0836 10.7883 24.034 10.3828 24.1075C9.97727 24.181 9.60309 24.3743 9.3085 24.6625L9.2335 24.7375C9.00131 24.9699 8.72559 25.1543 8.4221 25.2801C8.1186 25.406 7.79328 25.4707 7.46475 25.4707C7.13621 25.4707 6.81089 25.406 6.5074 25.2801C6.2039 25.1543 5.92818 24.9699 5.696 24.7375C5.46355 24.5053 5.27916 24.2296 5.15335 23.9261C5.02754 23.6226 4.96278 23.2973 4.96278 22.9688C4.96278 22.6402 5.02754 22.3149 5.15335 22.0114C5.27916 21.7079 5.46355 21.4322 5.696 21.2L5.771 21.125C6.05917 20.8304 6.25248 20.4562 6.326 20.0507C6.39953 19.6452 6.34989 19.227 6.1835 18.85C6.02504 18.4803 5.76194 18.165 5.42658 17.9429C5.09121 17.7208 4.69823 17.6016 4.296 17.6H4.0835C3.42045 17.6 2.78457 17.3366 2.31573 16.8678C1.84689 16.3989 1.5835 15.763 1.5835 15.1C1.5835 14.437 1.84689 13.8011 2.31573 13.3322C2.78457 12.8634 3.42045 12.6 4.0835 12.6H4.196C4.60974 12.5903 5.011 12.4564 5.34762 12.2156C5.68424 11.9749 5.94064 11.6384 6.0835 11.25C6.24989 10.873 6.29953 10.4548 6.226 10.0493C6.15248 9.64377 5.95917 9.2696 5.671 8.975L5.596 8.9C5.36356 8.66782 5.17916 8.3921 5.05335 8.0886C4.92754 7.78511 4.86278 7.45979 4.86278 7.13125C4.86278 6.80271 4.92754 6.47739 5.05335 6.1739C5.17916 5.8704 5.36356 5.59468 5.596 5.3625C5.82818 5.13006 6.1039 4.94566 6.4074 4.81985C6.71089 4.69404 7.03621 4.62928 7.36475 4.62928C7.69328 4.62928 8.0186 4.69404 8.3221 4.81985C8.62559 4.94566 8.90131 5.13006 9.1335 5.3625L9.2085 5.4375C9.50309 5.72567 9.87727 5.91898 10.2828 5.99251C10.6883 6.06603 11.1065 6.01639 11.4835 5.85H11.5835C11.9532 5.69155 12.2685 5.42844 12.4906 5.09308C12.7127 4.75772 12.8319 4.36473 12.8335 3.9625V3.75C12.8335 3.08696 13.0969 2.45107 13.5657 1.98223C14.0346 1.51339 14.6705 1.25 15.3335 1.25C15.9965 1.25 16.6324 1.51339 17.1013 1.98223C17.5701 2.45107 17.8335 3.08696 17.8335 3.75V3.8625C17.8351 4.26473 17.9543 4.65772 18.1764 4.99308C18.3985 5.32844 18.7138 5.59155 19.0835 5.75C19.4605 5.91639 19.8787 5.96603 20.2842 5.89251C20.6897 5.81898 21.0639 5.62567 21.3585 5.3375L21.4335 5.2625C21.6657 5.03006 21.9414 4.84566 22.2449 4.71985C22.5484 4.59404 22.8737 4.52928 23.2022 4.52928C23.5308 4.52928 23.8561 4.59404 24.1596 4.71985C24.4631 4.84566 24.7388 5.03006 24.971 5.2625C25.2034 5.49468 25.3878 5.7704 25.5136 6.0739C25.6395 6.37739 25.7042 6.70271 25.7042 7.03125C25.7042 7.35979 25.6395 7.68511 25.5136 7.9886C25.3878 8.2921 25.2034 8.56782 24.971 8.8L24.896 8.875C24.6078 9.1696 24.4145 9.54377 24.341 9.94926C24.2675 10.3548 24.3171 10.773 24.4835 11.15V11.25C24.6419 11.6197 24.9051 11.935 25.2404 12.1571C25.5758 12.3792 25.9688 12.4984 26.371 12.5H26.5835C27.2465 12.5 27.8824 12.7634 28.3513 13.2322C28.8201 13.7011 29.0835 14.337 29.0835 15C29.0835 15.663 28.8201 16.2989 28.3513 16.7678C27.8824 17.2366 27.2465 17.5 26.5835 17.5H26.471C26.0688 17.5016 25.6758 17.6208 25.3404 17.8429C25.0051 18.065 24.7419 18.3803 24.5835 18.75V18.75Z" stroke="#0E65F1" stroke-width="2.5" stroke-linecap="round" stroke-linejoin="round"/>
</g>
<defs>
<clipPath id="clip0_1779_28094">
<rect width="30" height="30" fill="white" transform="translate(0.333496)"/>
</clipPath>
</defs>
</svg>
