<svg width="46" height="46" viewBox="0 0 46 46" fill="none" xmlns="http://www.w3.org/2000/svg">
<circle cx="23" cy="23" r="23" fill="#2F80ED" fill-opacity="0.4"/>
<path d="M18.1051 26.2101C19.2151 26.6501 20 27.7334 20 29C20 30.6569 18.6568 32 17 32C15.3432 32 14 30.6569 14 29C14 27.6938 14.8348 26.5825 16 26.1707V19.8293C14.8348 19.4175 14 18.3062 14 17C14 15.3432 15.3432 14 17 14C18.6568 14 20 15.3432 20 17C20 18.3062 19.1652 19.4175 18 19.8293V22.9996C18.8357 22.3719 19.8744 22 21 22H25C26.3835 22 27.5482 21.0635 27.8949 19.7899C26.7849 19.3499 26 18.2666 26 17C26 15.3432 27.3431 14 29 14C30.6569 14 32 15.3432 32 17C32 18.3332 31.1303 19.4633 29.9274 19.8539C29.5222 22.2085 27.4703 24 25 24H21C19.6165 24 18.4518 24.9365 18.1051 26.2101Z" fill="#2F80ED"/>
</svg>
