<svg width="46" height="46" viewBox="0 0 46 46" fill="none" xmlns="http://www.w3.org/2000/svg">
<circle cx="23" cy="23" r="23" fill="#2F80ED" fill-opacity="0.4"/>
<path d="M21.313 22.5655L29.253 14.6255L31.3744 16.7468L29.9602 18.161L32.0815 20.2823L28.5459 23.8179L26.4246 21.6966L23.4343 24.6868C24.4182 26.5718 24.1186 28.9523 22.5355 30.5354C20.5829 32.488 17.4171 32.488 15.4645 30.5354C13.5118 28.5828 13.5118 25.4169 15.4645 23.4643C17.0476 21.8812 19.4281 21.5816 21.313 22.5655ZM20.4142 28.4141C21.1953 27.633 21.1953 26.3667 20.4142 25.5856C19.6332 24.8046 18.3668 24.8046 17.5858 25.5856C16.8047 26.3667 16.8047 27.633 17.5858 28.4141C18.3668 29.1951 19.6332 29.1951 20.4142 28.4141Z" fill="#2F80ED"/>
</svg>
