<svg width="46" height="46" viewBox="0 0 46 46" fill="none" xmlns="http://www.w3.org/2000/svg">
<circle cx="23" cy="23" r="22.5" fill="#2F80ED" fill-opacity="0.2" stroke="#2F80ED"/>
<path d="M13 20H16V32H13C12.4477 32 12 31.5523 12 31V21C12 20.4477 12.4477 20 13 20ZM18.2929 18.7071L24.6934 12.3066C24.8693 12.1307 25.1479 12.1109 25.3469 12.2602L26.1995 12.8996C26.6842 13.2631 26.9026 13.8825 26.7531 14.4697L25.5998 19H32C33.1046 19 34 19.8954 34 21V23.1043C34 23.3656 33.9488 23.6243 33.8494 23.8658L30.755 31.3807C30.6007 31.7554 30.2355 32 29.8303 32H19C18.4477 32 18 31.5523 18 31V19.4142C18 19.149 18.1054 18.8946 18.2929 18.7071Z" fill="#0E65F1"/>
</svg>
