<svg width="46" height="46" viewBox="0 0 46 46" fill="none" xmlns="http://www.w3.org/2000/svg">
<circle cx="23" cy="23" r="23" fill="#2F80ED" fill-opacity="0.4"/>
<path d="M26.2238 26.5078L24.0111 31.1579C23.8687 31.4572 23.5107 31.5843 23.2115 31.4419C23.1448 31.4102 23.0845 31.3664 23.0337 31.3127L19.4923 27.574C19.3975 27.4739 19.2711 27.4095 19.1344 27.3917L14.0282 26.7242C13.6996 26.6812 13.468 26.3801 13.511 26.0515C13.5206 25.9782 13.5436 25.9074 13.5789 25.8425L16.0403 21.3191C16.1062 21.198 16.1284 21.0579 16.1031 20.9224L15.16 15.8598C15.0993 15.534 15.3142 15.2207 15.64 15.1601C15.7126 15.1465 15.7871 15.1465 15.8597 15.1601L20.9224 16.1032C21.0579 16.1284 21.198 16.1063 21.319 16.0404L25.8424 13.579C26.1335 13.4206 26.4979 13.5281 26.6562 13.8192C26.6916 13.8841 26.7146 13.955 26.7241 14.0282L27.3916 19.1345C27.4095 19.2712 27.4739 19.3975 27.5739 19.4923L31.3127 23.0337C31.5533 23.2616 31.5636 23.6414 31.3357 23.8819C31.2849 23.9356 31.2246 23.9794 31.1579 24.0111L26.5078 26.2238C26.3833 26.2831 26.283 26.3833 26.2238 26.5078ZM27.0206 28.4349L28.4348 27.0207L32.6775 31.2633L31.2633 32.6775L27.0206 28.4349Z" fill="#2F80ED"/>
</svg>
