<svg width="46" height="46" viewBox="0 0 46 46" fill="none" xmlns="http://www.w3.org/2000/svg">
<circle cx="23" cy="23" r="23" fill="#2F80ED" fill-opacity="0.4"/>
<path d="M13.1322 23.6308C12.9502 22.5349 12.9562 21.434 13.1331 20.3695C14.2343 20.3963 15.2247 19.868 15.6096 18.9387C15.9945 18.0094 15.6678 16.9356 14.8702 16.1758C15.4978 15.298 16.272 14.5153 17.1757 13.8691C17.9355 14.6672 19.0097 14.9942 19.9392 14.6091C20.8687 14.2241 21.3971 13.2333 21.37 12.1318C22.4659 11.9497 23.5668 11.9557 24.6313 12.1326C24.6045 13.2338 25.1329 14.2242 26.0621 14.6091C26.9914 14.9941 28.0653 14.6673 28.825 13.8697C29.7029 14.4973 30.4856 15.2715 31.1317 16.1752C30.3337 16.935 30.0067 18.0092 30.3917 18.9387C30.7767 19.8682 31.7675 20.3966 32.8691 20.3695C33.0511 21.4654 33.0451 22.5663 32.8682 23.6308C31.767 23.6041 30.7766 24.1324 30.3917 25.0616C30.0068 25.9909 30.3335 27.0648 31.1311 27.8245C30.5035 28.7024 29.7293 29.4851 28.8256 30.1312C28.0658 29.3332 26.9916 29.0062 26.0621 29.3912C25.1326 29.7762 24.6043 30.767 24.6313 31.8686C23.5354 32.0507 22.4345 32.0447 21.37 31.8677C21.3968 30.7665 20.8685 29.7761 19.9392 29.3912C19.0099 29.0063 17.936 29.333 17.1763 30.1306C16.2985 29.503 15.5158 28.7288 14.8696 27.8252C15.6676 27.0654 15.9946 25.9912 15.6096 25.0616C15.2246 24.1321 14.2338 23.6038 13.1322 23.6308ZM23.0007 25.0002C24.6575 25.0002 26.0007 23.657 26.0007 22.0002C26.0007 20.3433 24.6575 19.0002 23.0007 19.0002C21.3438 19.0002 20.0007 20.3433 20.0007 22.0002C20.0007 23.657 21.3438 25.0002 23.0007 25.0002Z" fill="#2F80ED"/>
</svg>
