<svg width="40" height="40" viewBox="0 0 40 40" fill="none" xmlns="http://www.w3.org/2000/svg">
<path d="M11.8418 14.6498C12.4197 16.7725 14.3609 18.3333 16.6667 18.3333H23.3333C27.4505 18.3333 30.8703 21.3192 31.5457 25.2435C33.5505 25.8945 35 27.778 35 30C35 32.7615 32.7615 35 30 35C27.2385 35 25 32.7615 25 30C25 27.889 26.3082 26.0835 28.1582 25.3502C27.5803 23.2275 25.6392 21.6667 23.3333 21.6667H16.6667C14.7906 21.6667 13.0594 21.0468 11.6667 20.0007V25.2845C13.6087 25.9708 15 27.823 15 30C15 32.7615 12.7614 35 10 35C7.23858 35 5 32.7615 5 30C5 27.823 6.39135 25.9708 8.33333 25.2845V14.7155C6.39135 14.0291 5 12.177 5 10C5 7.23858 7.23858 5 10 5C12.7614 5 15 7.23858 15 10C15 12.111 13.6918 13.9165 11.8418 14.6498Z" fill="#2F80ED"/>
</svg>
