<svg width="40" height="40" viewBox="0 0 40 40" fill="none" xmlns="http://www.w3.org/2000/svg">
<path d="M30.0007 3.33334C30.9212 3.33334 31.6673 4.07954 31.6673 5.00001L31.6688 19.2143C29.8995 17.63 27.5625 16.6667 25.0007 16.6667C19.4778 16.6667 15.0007 21.1438 15.0007 26.6667C15.0007 32.064 19.6007 36.6667 25.0007 36.6667H10.0007C9.08018 36.6667 8.33398 35.9205 8.33398 35V5.00001C8.33398 4.07954 9.08018 3.33334 10.0007 3.33334H30.0007ZM25.0007 20C28.6825 20 31.6673 22.9848 31.6673 26.6667C31.6673 27.903 31.3308 29.0608 30.7443 30.0533L34.4288 33.7377L32.0716 36.0948L28.3873 32.4103C27.3948 32.9968 26.237 33.3333 25.0007 33.3333C21.3188 33.3333 18.334 30.3485 18.334 26.6667C18.334 22.9848 21.3188 20 25.0007 20ZM25.0007 23.3333C23.1597 23.3333 21.6673 24.8257 21.6673 26.6667C21.6673 28.5077 23.1597 30 25.0007 30C26.8417 30 28.334 28.5077 28.334 26.6667C28.334 24.8257 26.8417 23.3333 25.0007 23.3333Z" fill="#2F80ED"/>
</svg>
