<svg width="40" height="40" viewBox="0 0 40 40" fill="none" xmlns="http://www.w3.org/2000/svg">
<path d="M20.0007 3.33331C29.2043 3.33331 36.6673 9.96295 36.6673 18.1481C36.6673 23.2593 32.5192 27.4073 27.408 27.4073H24.1303C22.5933 27.4073 21.3525 28.6481 21.3525 30.1851C21.3525 30.8888 21.6303 31.537 22.0562 32.0185C22.5007 32.5185 22.7785 33.1666 22.7785 33.8888C22.7785 35.426 21.5007 36.6666 20.0007 36.6666C10.797 36.6666 3.33398 29.2036 3.33398 20C3.33398 10.7963 10.797 3.33331 20.0007 3.33331ZM12.5007 20C13.8814 20 15.0007 18.8806 15.0007 17.5C15.0007 16.1193 13.8814 15 12.5007 15C11.1199 15 10.0007 16.1193 10.0007 17.5C10.0007 18.8806 11.1199 20 12.5007 20ZM27.5007 20C28.8813 20 30.0007 18.8806 30.0007 17.5C30.0007 16.1193 28.8813 15 27.5007 15C26.12 15 25.0007 16.1193 25.0007 17.5C25.0007 18.8806 26.12 20 27.5007 20ZM20.0007 15C21.3813 15 22.5007 13.8807 22.5007 12.5C22.5007 11.1193 21.3813 9.99998 20.0007 9.99998C18.62 9.99998 17.5007 11.1193 17.5007 12.5C17.5007 13.8807 18.62 15 20.0007 15Z" fill="#2F80ED"/>
</svg>
